<svg id="mermaid-diagrams-er-mmd" xmlns="http://www.w3.org/2000/svg" class="erDiagram" viewBox="0 12 581.984375 844.75" role="graphics-document document" aria-roledescription="er" aria-describedby="chart-desc-mermaid-diagrams-er-mmd" aria-labelledby="chart-title-mermaid-diagrams-er-mmd" width="581.984375" height="844.75"><title id="chart-title-mermaid-diagrams-er-mmd">Blog Database Schema</title><desc id="chart-desc-mermaid-diagrams-er-mmd">This entity relationship diagram shows the database schema for a blog system. Users can write many posts, posts can have many comments, and posts belong to one category. The diagram shows the relationships between USER, POST, COMMENT, and CATEGORY entities with their respective fields and data types.</desc><style>#mermaid-diagrams-er-mmd{font-family:"Inter",system,-apple-system,"system-ui","Helvetica Neue","Lucida Grande",sans-serif;font-size:16px;fill:#000000;}@keyframes edge-animation-frame{from{stroke-dashoffset:0;}}@keyframes dash{to{stroke-dashoffset:0;}}#mermaid-diagrams-er-mmd .edge-animation-slow{stroke-dasharray:9,5!important;stroke-dashoffset:900;animation:dash 50s linear infinite;stroke-linecap:round;}#mermaid-diagrams-er-mmd .edge-animation-fast{stroke-dasharray:9,5!important;stroke-dashoffset:900;animation:dash 20s linear infinite;stroke-linecap:round;}#mermaid-diagrams-er-mmd .error-icon{fill:#f9f9f9;}#mermaid-diagrams-er-mmd .error-text{fill:#D55E00;stroke:#D55E00;}#mermaid-diagrams-er-mmd .edge-thickness-normal{stroke-width:1px;}#mermaid-diagrams-er-mmd .edge-thickness-thick{stroke-width:3.5px;}#mermaid-diagrams-er-mmd .edge-pattern-solid{stroke-dasharray:0;}#mermaid-diagrams-er-mmd .edge-thickness-invisible{stroke-width:0;fill:none;}#mermaid-diagrams-er-mmd .edge-pattern-dashed{stroke-dasharray:3;}#mermaid-diagrams-er-mmd .edge-pattern-dotted{stroke-dasharray:2;}#mermaid-diagrams-er-mmd .marker{fill:#666666;stroke:#666666;}#mermaid-diagrams-er-mmd .marker.cross{stroke:#666666;}#mermaid-diagrams-er-mmd svg{font-family:"Inter",system,-apple-system,"system-ui","Helvetica Neue","Lucida Grande",sans-serif;font-size:16px;}#mermaid-diagrams-er-mmd p{margin:0;}#mermaid-diagrams-er-mmd .entityBox{fill:#f9f9f9;stroke:#466eaa;}#mermaid-diagrams-er-mmd .relationshipLabelBox{fill:#ffffff;opacity:0.7;background-color:#ffffff;}#mermaid-diagrams-er-mmd .relationshipLabelBox rect{opacity:0.5;}#mermaid-diagrams-er-mmd .labelBkg{background-color:rgba(255, 255, 255, 0.5);}#mermaid-diagrams-er-mmd .edgeLabel{background-color:#f9f9f9;}#mermaid-diagrams-er-mmd .edgeLabel .label rect{fill:#f9f9f9;}#mermaid-diagrams-er-mmd .edgeLabel .label text{fill:#000000;}#mermaid-diagrams-er-mmd .edgeLabel .label{fill:#466eaa;font-size:14px;}#mermaid-diagrams-er-mmd .label{font-family:"Inter",system,-apple-system,"system-ui","Helvetica Neue","Lucida Grande",sans-serif;color:#000000;}#mermaid-diagrams-er-mmd .edge-pattern-dashed{stroke-dasharray:8,8;}#mermaid-diagrams-er-mmd .node rect,#mermaid-diagrams-er-mmd .node circle,#mermaid-diagrams-er-mmd .node ellipse,#mermaid-diagrams-er-mmd .node polygon{fill:#f9f9f9;stroke:#466eaa;stroke-width:1px;}#mermaid-diagrams-er-mmd .relationshipLine{stroke:#666666;stroke-width:1px;fill:none;}#mermaid-diagrams-er-mmd .marker{fill:none!important;stroke:#666666!important;stroke-width:1;}#mermaid-diagrams-er-mmd [data-look=neo].labelBkg{background-color:rgba(255, 255, 255, 0.5);}#mermaid-diagrams-er-mmd .node .neo-node{stroke:#466eaa;}#mermaid-diagrams-er-mmd [data-look="neo"].node rect,#mermaid-diagrams-er-mmd [data-look="neo"].cluster rect,#mermaid-diagrams-er-mmd [data-look="neo"].node polygon{stroke:url(#mermaid-diagrams-er-mmd-gradient);filter:drop-shadow( 1px 2px 2px rgba(185,185,185,1));}#mermaid-diagrams-er-mmd [data-look="neo"].node path{stroke:url(#mermaid-diagrams-er-mmd-gradient);stroke-width:1px;}#mermaid-diagrams-er-mmd [data-look="neo"].node .outer-path{filter:drop-shadow( 1px 2px 2px rgba(185,185,185,1));}#mermaid-diagrams-er-mmd [data-look="neo"].node .neo-line path{stroke:#466eaa;filter:none;}#mermaid-diagrams-er-mmd [data-look="neo"].node circle{stroke:url(#mermaid-diagrams-er-mmd-gradient);filter:drop-shadow( 1px 2px 2px rgba(185,185,185,1));}#mermaid-diagrams-er-mmd [data-look="neo"].node circle .state-start{fill:#000000;}#mermaid-diagrams-er-mmd [data-look="neo"].icon-shape .icon{fill:url(#mermaid-diagrams-er-mmd-gradient);filter:drop-shadow( 1px 2px 2px rgba(185,185,185,1));}#mermaid-diagrams-er-mmd [data-look="neo"].icon-shape .icon-neo path{stroke:url(#mermaid-diagrams-er-mmd-gradient);filter:drop-shadow( 1px 2px 2px rgba(185,185,185,1));}#mermaid-diagrams-er-mmd :root{--mermaid-font-family:"trebuchet ms",verdana,arial,sans-serif;}</style><g><defs><marker id="mermaid-diagrams-er-mmd_er-onlyOneStart" class="marker onlyOne er" refX="0" refY="9" markerWidth="18" markerHeight="18" orient="auto"><path d="M9,0 L9,18 M15,0 L15,18"></path></marker></defs><defs><marker id="mermaid-diagrams-er-mmd_er-onlyOneEnd" class="marker onlyOne er" refX="18" refY="9" markerWidth="18" markerHeight="18" orient="auto"><path d="M3,0 L3,18 M9,0 L9,18"></path></marker></defs><defs><marker id="mermaid-diagrams-er-mmd_er-zeroOrOneStart" class="marker zeroOrOne er" refX="0" refY="9" markerWidth="30" markerHeight="18" orient="auto"><circle fill="white" cx="21" cy="9" r="6"></circle><path d="M9,0 L9,18"></path></marker></defs><defs><marker id="mermaid-diagrams-er-mmd_er-zeroOrOneEnd" class="marker zeroOrOne er" refX="30" refY="9" markerWidth="30" markerHeight="18" orient="auto"><circle fill="white" cx="9" cy="9" r="6"></circle><path d="M21,0 L21,18"></path></marker></defs><defs><marker id="mermaid-diagrams-er-mmd_er-oneOrMoreStart" class="marker oneOrMore er" refX="18" refY="18" markerWidth="45" markerHeight="36" orient="auto"><path d="M0,18 Q 18,0 36,18 Q 18,36 0,18 M42,9 L42,27"></path></marker></defs><defs><marker id="mermaid-diagrams-er-mmd_er-oneOrMoreEnd" class="marker oneOrMore er" refX="27" refY="18" markerWidth="45" markerHeight="36" orient="auto"><path d="M3,9 L3,27 M9,18 Q27,0 45,18 Q27,36 9,18"></path></marker></defs><defs><marker id="mermaid-diagrams-er-mmd_er-zeroOrMoreStart" class="marker zeroOrMore er" refX="18" refY="18" markerWidth="57" markerHeight="36" orient="auto"><circle fill="white" cx="48" cy="18" r="6"></circle><path d="M0,18 Q18,0 36,18 Q18,36 0,18"></path></marker></defs><defs><marker id="mermaid-diagrams-er-mmd_er-zeroOrMoreEnd" class="marker zeroOrMore er" refX="39" refY="18" markerWidth="57" markerHeight="36" orient="auto"><circle fill="white" cx="9" cy="18" r="6"></circle><path d="M21,18 Q39,0 57,18 Q39,36 21,18"></path></marker></defs><g class="root"><g class="clusters"></g><g class="edgePaths"><path d="M299.895,203.75L299.895,212.25C299.895,220.75,299.895,237.75,299.895,254.75C299.895,271.75,299.895,288.75,299.895,297.25L299.895,305.75" id="mermaid-diagrams-er-mmd-id_entity-USER-0_entity-POST-1_0" class=" edge-thickness-normal edge-pattern-solid relationshipLine" style="undefined;;;undefined" data-edge="true" data-et="edge" data-id="id_entity-USER-0_entity-POST-1_0" data-points="W3sieCI6Mjk5Ljg5NDUzMTI1LCJ5IjoyMDMuNzV9LHsieCI6Mjk5Ljg5NDUzMTI1LCJ5IjoyNTQuNzV9LHsieCI6Mjk5Ljg5NDUzMTI1LCJ5IjozMDUuNzV9XQ==" data-look="classic" marker-start="url(#mermaid-diagrams-er-mmd_er-onlyOneStart)" marker-end="url(#mermaid-diagrams-er-mmd_er-zeroOrMoreEnd)"></path><path d="M181.357,526.25L172.218,534.75C163.079,543.25,144.801,560.25,135.662,577.25C126.523,594.25,126.523,611.25,126.523,619.75L126.523,628.25" id="mermaid-diagrams-er-mmd-id_entity-POST-1_entity-COMMENT-2_1" class=" edge-thickness-normal edge-pattern-solid relationshipLine" style="undefined;;;undefined" data-edge="true" data-et="edge" data-id="id_entity-POST-1_entity-COMMENT-2_1" data-points="W3sieCI6MTgxLjM1NzA4NTc1NTgxMzk2LCJ5Ijo1MjYuMjV9LHsieCI6MTI2LjUyMzQzNzUsInkiOjU3Ny4yNX0seyJ4IjoxMjYuNTIzNDM3NSwieSI6NjI4LjI1fV0=" data-look="classic" marker-start="url(#mermaid-diagrams-er-mmd_er-onlyOneStart)" marker-end="url(#mermaid-diagrams-er-mmd_er-zeroOrMoreEnd)"></path><path d="M418.432,526.25L427.571,534.75C436.71,543.25,454.988,560.25,464.127,583.375C473.266,606.5,473.266,635.75,473.266,650.375L473.266,665" id="mermaid-diagrams-er-mmd-id_entity-POST-1_entity-CATEGORY-3_2" class=" edge-thickness-normal edge-pattern-solid relationshipLine" style="undefined;;;undefined" data-edge="true" data-et="edge" data-id="id_entity-POST-1_entity-CATEGORY-3_2" data-points="W3sieCI6NDE4LjQzMTk3Njc0NDE4NjA0LCJ5Ijo1MjYuMjV9LHsieCI6NDczLjI2NTYyNSwieSI6NTc3LjI1fSx7IngiOjQ3My4yNjU2MjUsInkiOjY2NX1d" data-look="classic" marker-start="url(#mermaid-diagrams-er-mmd_er-zeroOrMoreStart)" marker-end="url(#mermaid-diagrams-er-mmd_er-onlyOneEnd)"></path></g><g class="edgeLabels"><g class="edgeLabel" transform="translate(299.89453125, 254.75)"><g class="label" data-id="id_entity-USER-0_entity-POST-1_0" transform="translate(0, -8.500000953674316)"><g><rect class="background" style="" x="-23.890625" y="-1" width="47.78125" height="22"></rect><text y="-10.1" text-anchor="middle" style=""><tspan class="text-outer-tspan row" x="0" y="-0.1em" dy="1.1em" text-anchor="middle"><tspan font-style="normal" class="text-inner-tspan" font-weight="normal">writes</tspan></tspan></text></g></g></g><g class="edgeLabel" transform="translate(126.5234375, 577.25)"><g class="label" data-id="id_entity-POST-1_entity-COMMENT-2_1" transform="translate(0, -8.500000953674316)"><g><rect class="background" style="" x="-14.84375" y="-1" width="29.6875" height="22"></rect><text y="-10.1" text-anchor="middle" style=""><tspan class="text-outer-tspan row" x="0" y="-0.1em" dy="1.1em" text-anchor="middle"><tspan font-style="normal" class="text-inner-tspan" font-weight="normal">has</tspan></tspan></text></g></g></g><g class="edgeLabel" transform="translate(473.265625, 577.25)"><g class="label" data-id="id_entity-POST-1_entity-CATEGORY-3_2" transform="translate(0, -8.500000953674316)"><g><rect class="background" style="" x="-42.5703125" y="-1" width="85.140625" height="22"></rect><text y="-10.1" text-anchor="middle" style=""><tspan class="text-outer-tspan row" x="0" y="-0.1em" dy="1.1em" text-anchor="middle"><tspan font-style="normal" class="text-inner-tspan" font-weight="normal">belongs_to</tspan></tspan></text></g></g></g></g><g class="nodes"><g class="node default " id="mermaid-diagrams-er-mmd-entity-USER-0" data-look="classic" transform="translate(299.89453125, 111.875)"><g class="outer-path" style=""><path d="M-118.5234375 -91.875 L118.5234375 -91.875 L118.5234375 91.875 L-118.5234375 91.875" stroke="none" stroke-width="0" fill="#f9f9f9"></path><path d="M-118.5234375 -91.875 C-53.81575589232068 -91.875, 10.891925715358639 -91.875, 118.5234375 -91.875 M-118.5234375 -91.875 C-54.69150850748918 -91.875, 9.140420485021636 -91.875, 118.5234375 -91.875 M118.5234375 -91.875 C118.5234375 -37.58517909294156, 118.5234375 16.704641814116883, 118.5234375 91.875 M118.5234375 -91.875 C118.5234375 -22.14628675732564, 118.5234375 47.58242648534872, 118.5234375 91.875 M118.5234375 91.875 C39.382838431581135 91.875, -39.75776063683773 91.875, -118.5234375 91.875 M118.5234375 91.875 C27.404621109120896 91.875, -63.71419528175821 91.875, -118.5234375 91.875 M-118.5234375 91.875 C-118.5234375 28.72739589288144, -118.5234375 -34.42020821423712, -118.5234375 -91.875 M-118.5234375 91.875 C-118.5234375 36.57382024588497, -118.5234375 -18.727359508230066, -118.5234375 -91.875" stroke="#466eaa" stroke-width="1.3" fill="none" stroke-dasharray="0 0"></path></g><g style="" class="row-rect-odd"><path d="M-118.5234375 -55.125 L118.5234375 -55.125 L118.5234375 -18.375 L-118.5234375 -18.375" stroke="none" stroke-width="0" fill="hsl(0, 0%, 100%)"></path><path d="M-118.5234375 -55.125 C-41.941533013637454 -55.125, 34.64037147272509 -55.125, 118.5234375 -55.125 M-118.5234375 -55.125 C-65.32998284235491 -55.125, -12.136528184709817 -55.125, 118.5234375 -55.125 M118.5234375 -55.125 C118.5234375 -42.4750490542975, 118.5234375 -29.825098108595, 118.5234375 -18.375 M118.5234375 -55.125 C118.5234375 -42.715263890008295, 118.5234375 -30.305527780016593, 118.5234375 -18.375 M118.5234375 -18.375 C42.38708867308314 -18.375, -33.74926015383372 -18.375, -118.5234375 -18.375 M118.5234375 -18.375 C45.1333153309142 -18.375, -28.2568068381716 -18.375, -118.5234375 -18.375 M-118.5234375 -18.375 C-118.5234375 -27.48093621910085, -118.5234375 -36.5868724382017, -118.5234375 -55.125 M-118.5234375 -18.375 C-118.5234375 -31.184696594497545, -118.5234375 -43.99439318899509, -118.5234375 -55.125" stroke="#466eaa" stroke-width="1.3" fill="none" stroke-dasharray="0 0"></path></g><g style="" class="row-rect-even"><path d="M-118.5234375 -18.375 L118.5234375 -18.375 L118.5234375 18.375 L-118.5234375 18.375" stroke="none" stroke-width="0" fill="hsl(0, 0%, 100%)"></path><path d="M-118.5234375 -18.375 C-58.34990895028781 -18.375, 1.8236195994243758 -18.375, 118.5234375 -18.375 M-118.5234375 -18.375 C-49.65447884776553 -18.375, 19.214479804468937 -18.375, 118.5234375 -18.375 M118.5234375 -18.375 C118.5234375 -6.910517954527364, 118.5234375 4.553964090945271, 118.5234375 18.375 M118.5234375 -18.375 C118.5234375 -6.181693499612974, 118.5234375 6.011613000774052, 118.5234375 18.375 M118.5234375 18.375 C25.16366546855322 18.375, -68.19610656289356 18.375, -118.5234375 18.375 M118.5234375 18.375 C31.47374964262758 18.375, -55.57593821474484 18.375, -118.5234375 18.375 M-118.5234375 18.375 C-118.5234375 9.714984908338035, -118.5234375 1.0549698166760706, -118.5234375 -18.375 M-118.5234375 18.375 C-118.5234375 5.6680055066023005, -118.5234375 -7.038988986795399, -118.5234375 -18.375" stroke="#466eaa" stroke-width="1.3" fill="none" stroke-dasharray="0 0"></path></g><g style="" class="row-rect-odd"><path d="M-118.5234375 18.375 L118.5234375 18.375 L118.5234375 55.125 L-118.5234375 55.125" stroke="none" stroke-width="0" fill="hsl(0, 0%, 100%)"></path><path d="M-118.5234375 18.375 C-63.435008617838626 18.375, -8.346579735677253 18.375, 118.5234375 18.375 M-118.5234375 18.375 C-34.71063142490114 18.375, 49.102174650197725 18.375, 118.5234375 18.375 M118.5234375 18.375 C118.5234375 25.73061058693398, 118.5234375 33.08622117386796, 118.5234375 55.125 M118.5234375 18.375 C118.5234375 31.682906024859093, 118.5234375 44.99081204971819, 118.5234375 55.125 M118.5234375 55.125 C54.27655561912995 55.125, -9.970326261740098 55.125, -118.5234375 55.125 M118.5234375 55.125 C59.92424673658713 55.125, 1.3250559731742584 55.125, -118.5234375 55.125 M-118.5234375 55.125 C-118.5234375 43.38301880314519, -118.5234375 31.641037606290375, -118.5234375 18.375 M-118.5234375 55.125 C-118.5234375 44.0604776295466, -118.5234375 32.99595525909319, -118.5234375 18.375" stroke="#466eaa" stroke-width="1.3" fill="none" stroke-dasharray="0 0"></path></g><g style="" class="row-rect-even"><path d="M-118.5234375 55.125 L118.5234375 55.125 L118.5234375 91.875 L-118.5234375 91.875" stroke="none" stroke-width="0" fill="hsl(0, 0%, 100%)"></path><path d="M-118.5234375 55.125 C-68.7030152581853 55.125, -18.882593016370606 55.125, 118.5234375 55.125 M-118.5234375 55.125 C-30.01067383735233 55.125, 58.50208982529534 55.125, 118.5234375 55.125 M118.5234375 55.125 C118.5234375 64.5731564616502, 118.5234375 74.02131292330039, 118.5234375 91.875 M118.5234375 55.125 C118.5234375 68.1262658130941, 118.5234375 81.12753162618819, 118.5234375 91.875 M118.5234375 91.875 C29.17870239248255 91.875, -60.1660327150349 91.875, -118.5234375 91.875 M118.5234375 91.875 C42.29862332418878 91.875, -33.92619085162244 91.875, -118.5234375 91.875 M-118.5234375 91.875 C-118.5234375 79.71990524772954, -118.5234375 67.56481049545907, -118.5234375 55.125 M-118.5234375 91.875 C-118.5234375 77.53473249490139, -118.5234375 63.194464989802775, -118.5234375 55.125" stroke="#466eaa" stroke-width="1.3" fill="none" stroke-dasharray="0 0"></path></g><g class="label name" transform="translate(-20.3671875, -82.5)" style=""><g><rect class="background" style="stroke: none"></rect></g><text y="-10.1" style=""><tspan class="text-outer-tspan row" x="0" y="-0.1em" dy="1.1em"><tspan font-style="normal" class="text-inner-tspan" font-weight="normal">USER</tspan></tspan></text></g><g class="label attribute-type" transform="translate(-106.0234375, -45.75)" style=""><g><rect class="background" style="stroke: none"></rect></g><text y="-10.1" style=""><tspan class="text-outer-tspan row" x="0" y="-0.1em" dy="1.1em"><tspan font-style="normal" class="text-inner-tspan" font-weight="normal">int</tspan></tspan></text></g><g class="label attribute-name" transform="translate(-17.1953125, -45.75)" style=""><g><rect class="background" style="stroke: none"></rect></g><text y="-10.1" style=""><tspan class="text-outer-tspan row" x="0" y="-0.1em" dy="1.1em"><tspan font-style="normal" class="text-inner-tspan" font-weight="normal">id</tspan></tspan></text></g><g class="label attribute-keys" transform="translate(85.9453125, -45.75)" style=""><g><rect class="background" style="stroke: none"></rect></g><text y="-10.1" style=""><tspan class="text-outer-tspan row" x="0" y="-0.1em" dy="1.1em"><tspan font-style="normal" class="text-inner-tspan" font-weight="normal">PK</tspan></tspan></text></g><g class="label attribute-comment" transform="translate(131.0234375, -45.75)" style=""><g><rect class="background" style="stroke: none"></rect></g><text y="-10.1" style=""><tspan class="text-outer-tspan row" x="0" y="-0.1em" dy="1.1em"></tspan></text></g><g class="label attribute-type" transform="translate(-106.0234375, -9)" style=""><g><rect class="background" style="stroke: none"></rect></g><text y="-10.1" style=""><tspan class="text-outer-tspan row" x="0" y="-0.1em" dy="1.1em"><tspan font-style="normal" class="text-inner-tspan" font-weight="normal">string</tspan></tspan></text></g><g class="label attribute-name" transform="translate(-17.1953125, -9)" style=""><g><rect class="background" style="stroke: none"></rect></g><text y="-10.1" style=""><tspan class="text-outer-tspan row" x="0" y="-0.1em" dy="1.1em"><tspan font-style="normal" class="text-inner-tspan" font-weight="normal">name</tspan></tspan></text></g><g class="label attribute-keys" transform="translate(85.9453125, -9)" style=""><g><rect class="background" style="stroke: none"></rect></g><text y="-10.1" style=""><tspan class="text-outer-tspan row" x="0" y="-0.1em" dy="1.1em"></tspan></text></g><g class="label attribute-comment" transform="translate(131.0234375, -9)" style=""><g><rect class="background" style="stroke: none"></rect></g><text y="-10.1" style=""><tspan class="text-outer-tspan row" x="0" y="-0.1em" dy="1.1em"></tspan></text></g><g class="label attribute-type" transform="translate(-106.0234375, 27.75)" style=""><g><rect class="background" style="stroke: none"></rect></g><text y="-10.1" style=""><tspan class="text-outer-tspan row" x="0" y="-0.1em" dy="1.1em"><tspan font-style="normal" class="text-inner-tspan" font-weight="normal">string</tspan></tspan></text></g><g class="label attribute-name" transform="translate(-17.1953125, 27.75)" style=""><g><rect class="background" style="stroke: none"></rect></g><text y="-10.1" style=""><tspan class="text-outer-tspan row" x="0" y="-0.1em" dy="1.1em"><tspan font-style="normal" class="text-inner-tspan" font-weight="normal">email</tspan></tspan></text></g><g class="label attribute-keys" transform="translate(85.9453125, 27.75)" style=""><g><rect class="background" style="stroke: none"></rect></g><text y="-10.1" style=""><tspan class="text-outer-tspan row" x="0" y="-0.1em" dy="1.1em"></tspan></text></g><g class="label attribute-comment" transform="translate(131.0234375, 27.75)" style=""><g><rect class="background" style="stroke: none"></rect></g><text y="-10.1" style=""><tspan class="text-outer-tspan row" x="0" y="-0.1em" dy="1.1em"></tspan></text></g><g class="label attribute-type" transform="translate(-106.0234375, 64.5)" style=""><g><rect class="background" style="stroke: none"></rect></g><text y="-10.1" style=""><tspan class="text-outer-tspan row" x="0" y="-0.1em" dy="1.1em"><tspan font-style="normal" class="text-inner-tspan" font-weight="normal">datetime</tspan></tspan></text></g><g class="label attribute-name" transform="translate(-17.1953125, 64.5)" style=""><g><rect class="background" style="stroke: none"></rect></g><text y="-10.1" style=""><tspan class="text-outer-tspan row" x="0" y="-0.1em" dy="1.1em"><tspan font-style="normal" class="text-inner-tspan" font-weight="normal">created_at</tspan></tspan></text></g><g class="label attribute-keys" transform="translate(85.9453125, 64.5)" style=""><g><rect class="background" style="stroke: none"></rect></g><text y="-10.1" style=""><tspan class="text-outer-tspan row" x="0" y="-0.1em" dy="1.1em"></tspan></text></g><g class="label attribute-comment" transform="translate(131.0234375, 64.5)" style=""><g><rect class="background" style="stroke: none"></rect></g><text y="-10.1" style=""><tspan class="text-outer-tspan row" x="0" y="-0.1em" dy="1.1em"></tspan></text></g><g class="divider"><path d="M-118.5234375 -55.12505 L-118.5234375 -55.12495 L118.5234375 -55.12495 L118.5234375 -55.12505" stroke="none" stroke-width="0" fill="#f9f9f9" fill-rule="evenodd"></path><path d="M-118.5234375 -55.12505 C-118.5234375 -55.12501761764084, -118.5234375 -55.12498523528169, -118.5234375 -55.12495 M-118.5234375 -55.12505 C-118.5234375 -55.12502451532053, -118.5234375 -55.12499903064107, -118.5234375 -55.12495 M-118.5234375 -55.12495 C-65.57931801446615 -55.12495, -12.635198528932307 -55.12495, 118.5234375 -55.12495 M-118.5234375 -55.12495 C-54.5971060900916 -55.12495, 9.3292253198168 -55.12495, 118.5234375 -55.12495 M118.5234375 -55.12495 C118.5234375 -55.12498328084272, 118.5234375 -55.12501656168544, 118.5234375 -55.12505 M118.5234375 -55.12495 C118.5234375 -55.12498153913924, 118.5234375 -55.12501307827849, 118.5234375 -55.12505 M118.5234375 -55.12505 C53.15033509734772 -55.12505, -12.222767305304558 -55.12505, -118.5234375 -55.12505 M118.5234375 -55.12505 C39.0211388100665 -55.12505, -40.48115987986699 -55.12505, -118.5234375 -55.12505" stroke="#466eaa" stroke-width="1.3" fill="none" stroke-dasharray="0 0"></path></g><g class="divider"><path d="M-29.6953625 -55.125 L-29.6952625 -55.125 L-29.6952625 91.875 L-29.6953625 91.875" stroke="none" stroke-width="0" fill="#f9f9f9" fill-rule="evenodd"></path><path d="M-29.6953625 -55.125 C-29.695335250197687 -55.125, -29.69530800039537 -55.125, -29.6952625 -55.125 M-29.6953625 -55.125 C-29.69534045418837 -55.125, -29.695318408376735 -55.125, -29.6952625 -55.125 M-29.6952625 -55.125 C-29.6952625 -19.7791535780121, -29.6952625 15.566692843975801, -29.6952625 91.875 M-29.6952625 -55.125 C-29.6952625 -19.267999310108657, -29.6952625 16.589001379782687, -29.6952625 91.875 M-29.6952625 91.875 C-29.6952999759914 91.875, -29.6953374519828 91.875, -29.6953625 91.875 M-29.6952625 91.875 C-29.695285718706756 91.875, -29.695308937413515 91.875, -29.6953625 91.875 M-29.6953625 91.875 C-29.6953625 34.59623173133743, -29.6953625 -22.682536537325134, -29.6953625 -55.125 M-29.6953625 91.875 C-29.6953625 50.82774208156982, -29.6953625 9.780484163139647, -29.6953625 -55.125" stroke="#466eaa" stroke-width="1.3" fill="none" stroke-dasharray="0 0"></path></g><g class="divider"><path d="M73.4452625 -55.125 L73.4453625 -55.125 L73.4453625 91.875 L73.4452625 91.875" stroke="none" stroke-width="0" fill="#f9f9f9" fill-rule="evenodd"></path><path d="M73.4452625 -55.125 C73.44528770811648 -55.125, 73.44531291623296 -55.125, 73.4453625 -55.125 M73.4452625 -55.125 C73.44529886909676 -55.125, 73.44533523819352 -55.125, 73.4453625 -55.125 M73.4453625 -55.125 C73.4453625 -20.126849399867012, 73.4453625 14.871301200265975, 73.4453625 91.875 M73.4453625 -55.125 C73.4453625 -12.337943774817361, 73.4453625 30.449112450365277, 73.4453625 91.875 M73.4453625 91.875 C73.44532783004813 91.875, 73.44529316009624 91.875, 73.4452625 91.875 M73.4453625 91.875 C73.44532854341844 91.875, 73.44529458683688 91.875, 73.4452625 91.875 M73.4452625 91.875 C73.4452625 59.100862701033634, 73.4452625 26.326725402067268, 73.4452625 -55.125 M73.4452625 91.875 C73.4452625 36.74760033775713, 73.4452625 -18.379799324485745, 73.4452625 -55.125" stroke="#466eaa" stroke-width="1.3" fill="none" stroke-dasharray="0 0"></path></g><g class="divider"><path d="M-118.5234375 -55.12505 L-118.5234375 -55.12495 L118.5234375 -55.12495 L118.5234375 -55.12505" stroke="none" stroke-width="0" fill="#f9f9f9" fill-rule="evenodd"></path><path d="M-118.5234375 -55.12505 C-118.5234375 -55.12501653573711, -118.5234375 -55.12498307147421, -118.5234375 -55.12495 M-118.5234375 -55.12505 C-118.5234375 -55.12501907987726, -118.5234375 -55.12498815975453, -118.5234375 -55.12495 M-118.5234375 -55.12495 C-34.5655239196449 -55.12495, 49.392389660710194 -55.12495, 118.5234375 -55.12495 M-118.5234375 -55.12495 C-46.189065757178454 -55.12495, 26.14530598564309 -55.12495, 118.5234375 -55.12495 M118.5234375 -55.12495 C118.5234375 -55.12498263502135, 118.5234375 -55.12501527004269, 118.5234375 -55.12505 M118.5234375 -55.12495 C118.5234375 -55.12498112605434, 118.5234375 -55.125012252108675, 118.5234375 -55.12505 M118.5234375 -55.12505 C53.42458330878566 -55.12505, -11.674270882428686 -55.12505, -118.5234375 -55.12505 M118.5234375 -55.12505 C64.37979461174203 -55.12505, 10.23615172348407 -55.12505, -118.5234375 -55.12505" stroke="#466eaa" stroke-width="1.3" fill="none" stroke-dasharray="0 0"></path></g></g><g class="node default " id="mermaid-diagrams-er-mmd-entity-POST-1" data-look="classic" transform="translate(299.89453125, 416)"><g class="outer-path" style=""><path d="M-126.3359375 -110.25 L126.3359375 -110.25 L126.3359375 110.25 L-126.3359375 110.25" stroke="none" stroke-width="0" fill="#f9f9f9"></path><path d="M-126.3359375 -110.25 C-30.893981154355018 -110.25, 64.54797519128996 -110.25, 126.3359375 -110.25 M-126.3359375 -110.25 C-49.71016067411982 -110.25, 26.91561615176036 -110.25, 126.3359375 -110.25 M126.3359375 -110.25 C126.3359375 -50.97160955931303, 126.3359375 8.306780881373939, 126.3359375 110.25 M126.3359375 -110.25 C126.3359375 -34.30787128994143, 126.3359375 41.63425742011714, 126.3359375 110.25 M126.3359375 110.25 C67.60647215197011 110.25, 8.877006803940219 110.25, -126.3359375 110.25 M126.3359375 110.25 C62.67406735478597 110.25, -0.9878027904280628 110.25, -126.3359375 110.25 M-126.3359375 110.25 C-126.3359375 34.8974363553492, -126.3359375 -40.4551272893016, -126.3359375 -110.25 M-126.3359375 110.25 C-126.3359375 65.70877590572806, -126.3359375 21.167551811456107, -126.3359375 -110.25" stroke="#466eaa" stroke-width="1.3" fill="none" stroke-dasharray="0 0"></path></g><g style="" class="row-rect-odd"><path d="M-126.3359375 -73.5 L126.3359375 -73.5 L126.3359375 -36.75 L-126.3359375 -36.75" stroke="none" stroke-width="0" fill="hsl(0, 0%, 100%)"></path><path d="M-126.3359375 -73.5 C-57.03545606128293 -73.5, 12.265025377434142 -73.5, 126.3359375 -73.5 M-126.3359375 -73.5 C-59.98763847357368 -73.5, 6.360660552852636 -73.5, 126.3359375 -73.5 M126.3359375 -73.5 C126.3359375 -59.864807643766135, 126.3359375 -46.22961528753227, 126.3359375 -36.75 M126.3359375 -73.5 C126.3359375 -60.82620374825514, 126.3359375 -48.15240749651028, 126.3359375 -36.75 M126.3359375 -36.75 C45.99956668823529 -36.75, -34.33680412352942 -36.75, -126.3359375 -36.75 M126.3359375 -36.75 C50.468579520089406 -36.75, -25.398778459821187 -36.75, -126.3359375 -36.75 M-126.3359375 -36.75 C-126.3359375 -46.78614061532197, -126.3359375 -56.82228123064393, -126.3359375 -73.5 M-126.3359375 -36.75 C-126.3359375 -46.78560889667526, -126.3359375 -56.82121779335051, -126.3359375 -73.5" stroke="#466eaa" stroke-width="1.3" fill="none" stroke-dasharray="0 0"></path></g><g style="" class="row-rect-even"><path d="M-126.3359375 -36.75 L126.3359375 -36.75 L126.3359375 0 L-126.3359375 0" stroke="none" stroke-width="0" fill="hsl(0, 0%, 100%)"></path><path d="M-126.3359375 -36.75 C-66.69660937611148 -36.75, -7.057281252222964 -36.75, 126.3359375 -36.75 M-126.3359375 -36.75 C-26.706826111052592 -36.75, 72.92228527789482 -36.75, 126.3359375 -36.75 M126.3359375 -36.75 C126.3359375 -23.514116071485912, 126.3359375 -10.278232142971824, 126.3359375 0 M126.3359375 -36.75 C126.3359375 -26.824149994498462, 126.3359375 -16.89829998899692, 126.3359375 0 M126.3359375 0 C48.118524879218015 0, -30.09888774156397 0, -126.3359375 0 M126.3359375 0 C66.26140534575924 0, 6.186873191518501 0, -126.3359375 0 M-126.3359375 0 C-126.3359375 -12.368080093689342, -126.3359375 -24.736160187378683, -126.3359375 -36.75 M-126.3359375 0 C-126.3359375 -13.50870667354649, -126.3359375 -27.01741334709298, -126.3359375 -36.75" stroke="#466eaa" stroke-width="1.3" fill="none" stroke-dasharray="0 0"></path></g><g style="" class="row-rect-odd"><path d="M-126.3359375 0 L126.3359375 0 L126.3359375 36.75 L-126.3359375 36.75" stroke="none" stroke-width="0" fill="hsl(0, 0%, 100%)"></path><path d="M-126.3359375 0 C-67.83496984781348 0, -9.334002195626951 0, 126.3359375 0 M-126.3359375 0 C-57.046350437634956 0, 12.243236624730088 0, 126.3359375 0 M126.3359375 0 C126.3359375 14.326947333507606, 126.3359375 28.653894667015212, 126.3359375 36.75 M126.3359375 0 C126.3359375 13.422704692953335, 126.3359375 26.84540938590667, 126.3359375 36.75 M126.3359375 36.75 C58.79139293419645 36.75, -8.753151631607096 36.75, -126.3359375 36.75 M126.3359375 36.75 C37.070409407832685 36.75, -52.19511868433463 36.75, -126.3359375 36.75 M-126.3359375 36.75 C-126.3359375 23.447816258911907, -126.3359375 10.14563251782381, -126.3359375 0 M-126.3359375 36.75 C-126.3359375 24.489273440580167, -126.3359375 12.228546881160334, -126.3359375 0" stroke="#466eaa" stroke-width="1.3" fill="none" stroke-dasharray="0 0"></path></g><g style="" class="row-rect-even"><path d="M-126.3359375 36.75 L126.3359375 36.75 L126.3359375 73.5 L-126.3359375 73.5" stroke="none" stroke-width="0" fill="hsl(0, 0%, 100%)"></path><path d="M-126.3359375 36.75 C-46.24791112619546 36.75, 33.84011524760908 36.75, 126.3359375 36.75 M-126.3359375 36.75 C-52.81200237296942 36.75, 20.711932754061166 36.75, 126.3359375 36.75 M126.3359375 36.75 C126.3359375 50.10411002512661, 126.3359375 63.45822005025322, 126.3359375 73.5 M126.3359375 36.75 C126.3359375 49.341370980604836, 126.3359375 61.93274196120967, 126.3359375 73.5 M126.3359375 73.5 C64.55255263976179 73.5, 2.7691677795235705 73.5, -126.3359375 73.5 M126.3359375 73.5 C56.16600595264863 73.5, -14.003925594702736 73.5, -126.3359375 73.5 M-126.3359375 73.5 C-126.3359375 61.414808320564994, -126.3359375 49.32961664112999, -126.3359375 36.75 M-126.3359375 73.5 C-126.3359375 61.84752337277859, -126.3359375 50.19504674555718, -126.3359375 36.75" stroke="#466eaa" stroke-width="1.3" fill="none" stroke-dasharray="0 0"></path></g><g style="" class="row-rect-odd"><path d="M-126.3359375 73.5 L126.3359375 73.5 L126.3359375 110.25 L-126.3359375 110.25" stroke="none" stroke-width="0" fill="hsl(0, 0%, 100%)"></path><path d="M-126.3359375 73.5 C-34.47974734792973 73.5, 57.37644280414054 73.5, 126.3359375 73.5 M-126.3359375 73.5 C-40.84015958516261 73.5, 44.65561832967478 73.5, 126.3359375 73.5 M126.3359375 73.5 C126.3359375 85.73051085990804, 126.3359375 97.96102171981606, 126.3359375 110.25 M126.3359375 73.5 C126.3359375 83.14323435852351, 126.3359375 92.78646871704703, 126.3359375 110.25 M126.3359375 110.25 C41.83928257885137 110.25, -42.657372342297265 110.25, -126.3359375 110.25 M126.3359375 110.25 C58.8591024440143 110.25, -8.617732611971405 110.25, -126.3359375 110.25 M-126.3359375 110.25 C-126.3359375 102.060236634667, -126.3359375 93.87047326933401, -126.3359375 73.5 M-126.3359375 110.25 C-126.3359375 100.54143706861157, -126.3359375 90.83287413722314, -126.3359375 73.5" stroke="#466eaa" stroke-width="1.3" fill="none" stroke-dasharray="0 0"></path></g><g class="label name" transform="translate(-20.796875, -100.875)" style=""><g><rect class="background" style="stroke: none"></rect></g><text y="-10.1" style=""><tspan class="text-outer-tspan row" x="0" y="-0.1em" dy="1.1em"><tspan font-style="normal" class="text-inner-tspan" font-weight="normal">POST</tspan></tspan></text></g><g class="label attribute-type" transform="translate(-113.8359375, -64.125)" style=""><g><rect class="background" style="stroke: none"></rect></g><text y="-10.1" style=""><tspan class="text-outer-tspan row" x="0" y="-0.1em" dy="1.1em"><tspan font-style="normal" class="text-inner-tspan" font-weight="normal">int</tspan></tspan></text></g><g class="label attribute-name" transform="translate(-25.0078125, -64.125)" style=""><g><rect class="background" style="stroke: none"></rect></g><text y="-10.1" style=""><tspan class="text-outer-tspan row" x="0" y="-0.1em" dy="1.1em"><tspan font-style="normal" class="text-inner-tspan" font-weight="normal">id</tspan></tspan></text></g><g class="label attribute-keys" transform="translate(93.7578125, -64.125)" style=""><g><rect class="background" style="stroke: none"></rect></g><text y="-10.1" style=""><tspan class="text-outer-tspan row" x="0" y="-0.1em" dy="1.1em"><tspan font-style="normal" class="text-inner-tspan" font-weight="normal">PK</tspan></tspan></text></g><g class="label attribute-comment" transform="translate(138.8359375, -64.125)" style=""><g><rect class="background" style="stroke: none"></rect></g><text y="-10.1" style=""><tspan class="text-outer-tspan row" x="0" y="-0.1em" dy="1.1em"></tspan></text></g><g class="label attribute-type" transform="translate(-113.8359375, -27.375)" style=""><g><rect class="background" style="stroke: none"></rect></g><text y="-10.1" style=""><tspan class="text-outer-tspan row" x="0" y="-0.1em" dy="1.1em"><tspan font-style="normal" class="text-inner-tspan" font-weight="normal">int</tspan></tspan></text></g><g class="label attribute-name" transform="translate(-25.0078125, -27.375)" style=""><g><rect class="background" style="stroke: none"></rect></g><text y="-10.1" style=""><tspan class="text-outer-tspan row" x="0" y="-0.1em" dy="1.1em"><tspan font-style="normal" class="text-inner-tspan" font-weight="normal">user_id</tspan></tspan></text></g><g class="label attribute-keys" transform="translate(93.7578125, -27.375)" style=""><g><rect class="background" style="stroke: none"></rect></g><text y="-10.1" style=""><tspan class="text-outer-tspan row" x="0" y="-0.1em" dy="1.1em"><tspan font-style="normal" class="text-inner-tspan" font-weight="normal">FK</tspan></tspan></text></g><g class="label attribute-comment" transform="translate(138.8359375, -27.375)" style=""><g><rect class="background" style="stroke: none"></rect></g><text y="-10.1" style=""><tspan class="text-outer-tspan row" x="0" y="-0.1em" dy="1.1em"></tspan></text></g><g class="label attribute-type" transform="translate(-113.8359375, 9.375)" style=""><g><rect class="background" style="stroke: none"></rect></g><text y="-10.1" style=""><tspan class="text-outer-tspan row" x="0" y="-0.1em" dy="1.1em"><tspan font-style="normal" class="text-inner-tspan" font-weight="normal">string</tspan></tspan></text></g><g class="label attribute-name" transform="translate(-25.0078125, 9.375)" style=""><g><rect class="background" style="stroke: none"></rect></g><text y="-10.1" style=""><tspan class="text-outer-tspan row" x="0" y="-0.1em" dy="1.1em"><tspan font-style="normal" class="text-inner-tspan" font-weight="normal">title</tspan></tspan></text></g><g class="label attribute-keys" transform="translate(93.7578125, 9.375)" style=""><g><rect class="background" style="stroke: none"></rect></g><text y="-10.1" style=""><tspan class="text-outer-tspan row" x="0" y="-0.1em" dy="1.1em"></tspan></text></g><g class="label attribute-comment" transform="translate(138.8359375, 9.375)" style=""><g><rect class="background" style="stroke: none"></rect></g><text y="-10.1" style=""><tspan class="text-outer-tspan row" x="0" y="-0.1em" dy="1.1em"></tspan></text></g><g class="label attribute-type" transform="translate(-113.8359375, 46.125)" style=""><g><rect class="background" style="stroke: none"></rect></g><text y="-10.1" style=""><tspan class="text-outer-tspan row" x="0" y="-0.1em" dy="1.1em"><tspan font-style="normal" class="text-inner-tspan" font-weight="normal">text</tspan></tspan></text></g><g class="label attribute-name" transform="translate(-25.0078125, 46.125)" style=""><g><rect class="background" style="stroke: none"></rect></g><text y="-10.1" style=""><tspan class="text-outer-tspan row" x="0" y="-0.1em" dy="1.1em"><tspan font-style="normal" class="text-inner-tspan" font-weight="normal">content</tspan></tspan></text></g><g class="label attribute-keys" transform="translate(93.7578125, 46.125)" style=""><g><rect class="background" style="stroke: none"></rect></g><text y="-10.1" style=""><tspan class="text-outer-tspan row" x="0" y="-0.1em" dy="1.1em"></tspan></text></g><g class="label attribute-comment" transform="translate(138.8359375, 46.125)" style=""><g><rect class="background" style="stroke: none"></rect></g><text y="-10.1" style=""><tspan class="text-outer-tspan row" x="0" y="-0.1em" dy="1.1em"></tspan></text></g><g class="label attribute-type" transform="translate(-113.8359375, 82.875)" style=""><g><rect class="background" style="stroke: none"></rect></g><text y="-10.1" style=""><tspan class="text-outer-tspan row" x="0" y="-0.1em" dy="1.1em"><tspan font-style="normal" class="text-inner-tspan" font-weight="normal">datetime</tspan></tspan></text></g><g class="label attribute-name" transform="translate(-25.0078125, 82.875)" style=""><g><rect class="background" style="stroke: none"></rect></g><text y="-10.1" style=""><tspan class="text-outer-tspan row" x="0" y="-0.1em" dy="1.1em"><tspan font-style="normal" class="text-inner-tspan" font-weight="normal">published_at</tspan></tspan></text></g><g class="label attribute-keys" transform="translate(93.7578125, 82.875)" style=""><g><rect class="background" style="stroke: none"></rect></g><text y="-10.1" style=""><tspan class="text-outer-tspan row" x="0" y="-0.1em" dy="1.1em"></tspan></text></g><g class="label attribute-comment" transform="translate(138.8359375, 82.875)" style=""><g><rect class="background" style="stroke: none"></rect></g><text y="-10.1" style=""><tspan class="text-outer-tspan row" x="0" y="-0.1em" dy="1.1em"></tspan></text></g><g class="divider"><path d="M-126.3359375 -73.50005 L-126.3359375 -73.49995 L126.3359375 -73.49995 L126.3359375 -73.50005" stroke="none" stroke-width="0" fill="#f9f9f9" fill-rule="evenodd"></path><path d="M-126.3359375 -73.50005 C-126.3359375 -73.50001579659892, -126.3359375 -73.49998159319782, -126.3359375 -73.49995 M-126.3359375 -73.50005 C-126.3359375 -73.50002210464248, -126.3359375 -73.49999420928498, -126.3359375 -73.49995 M-126.3359375 -73.49995 C-63.523205790232765 -73.49995, -0.7104740804655307 -73.49995, 126.3359375 -73.49995 M-126.3359375 -73.49995 C-27.72524872902163 -73.49995, 70.88544004195674 -73.49995, 126.3359375 -73.49995 M126.3359375 -73.49995 C126.3359375 -73.4999769752398, 126.3359375 -73.50000395047962, 126.3359375 -73.50005 M126.3359375 -73.49995 C126.3359375 -73.49997065184166, 126.3359375 -73.49999130368332, 126.3359375 -73.50005 M126.3359375 -73.50005 C56.287736618165724 -73.50005, -13.760464263668553 -73.50005, -126.3359375 -73.50005 M126.3359375 -73.50005 C50.91623361084078 -73.50005, -24.503470278318446 -73.50005, -126.3359375 -73.50005" stroke="#466eaa" stroke-width="1.3" fill="none" stroke-dasharray="0 0"></path></g><g class="divider"><path d="M-37.5078625 -73.5 L-37.5077625 -73.5 L-37.5077625 110.25 L-37.5078625 110.25" stroke="none" stroke-width="0" fill="#f9f9f9" fill-rule="evenodd"></path><path d="M-37.5078625 -73.5 C-37.50782653653008 -73.5, -37.50779057306016 -73.5, -37.5077625 -73.5 M-37.5078625 -73.5 C-37.50783722982451 -73.5, -37.507811959649025 -73.5, -37.5077625 -73.5 M-37.5077625 -73.5 C-37.5077625 -17.46632157898859, -37.5077625 38.56735684202282, -37.5077625 110.25 M-37.5077625 -73.5 C-37.5077625 -3.2956156539371335, -37.5077625 66.90876869212573, -37.5077625 110.25 M-37.5077625 110.25 C-37.50779567221637 110.25, -37.50782884443274 110.25, -37.5078625 110.25 M-37.5077625 110.25 C-37.5078012750978 110.25, -37.5078400501956 110.25, -37.5078625 110.25 M-37.5078625 110.25 C-37.5078625 64.82766642463272, -37.5078625 19.405332849265463, -37.5078625 -73.5 M-37.5078625 110.25 C-37.5078625 61.024618664253914, -37.5078625 11.799237328507829, -37.5078625 -73.5" stroke="#466eaa" stroke-width="1.3" fill="none" stroke-dasharray="0 0"></path></g><g class="divider"><path d="M81.2577625 -73.5 L81.2578625 -73.5 L81.2578625 110.25 L81.2577625 110.25" stroke="none" stroke-width="0" fill="#f9f9f9" fill-rule="evenodd"></path><path d="M81.2577625 -73.5 C81.2577960022172 -73.5, 81.2578295044344 -73.5, 81.2578625 -73.5 M81.2577625 -73.5 C81.25779183661047 -73.5, 81.25782117322093 -73.5, 81.2578625 -73.5 M81.2578625 -73.5 C81.2578625 -11.350639127757887, 81.2578625 50.798721744484226, 81.2578625 110.25 M81.2578625 -73.5 C81.2578625 -36.195614515462786, 81.2578625 1.1087709690744276, 81.2578625 110.25 M81.2578625 110.25 C81.25783832890703 110.25, 81.25781415781405 110.25, 81.2577625 110.25 M81.2578625 110.25 C81.25783518965694 110.25, 81.25780787931389 110.25, 81.2577625 110.25 M81.2577625 110.25 C81.2577625 50.30282646752096, 81.2577625 -9.644347064958083, 81.2577625 -73.5 M81.2577625 110.25 C81.2577625 53.40564907105395, 81.2577625 -3.4387018578920987, 81.2577625 -73.5" stroke="#466eaa" stroke-width="1.3" fill="none" stroke-dasharray="0 0"></path></g><g class="divider"><path d="M-126.3359375 -73.50005 L-126.3359375 -73.49995 L126.3359375 -73.49995 L126.3359375 -73.50005" stroke="none" stroke-width="0" fill="#f9f9f9" fill-rule="evenodd"></path><path d="M-126.3359375 -73.50005 C-126.3359375 -73.50002909496443, -126.3359375 -73.50000818992888, -126.3359375 -73.49995 M-126.3359375 -73.50005 C-126.3359375 -73.50002545655235, -126.3359375 -73.5000009131047, -126.3359375 -73.49995 M-126.3359375 -73.49995 C-69.75061344373356 -73.49995, -13.165289387467098 -73.49995, 126.3359375 -73.49995 M-126.3359375 -73.49995 C-37.79823289380148 -73.49995, 50.739471712397034 -73.49995, 126.3359375 -73.49995 M126.3359375 -73.49995 C126.3359375 -73.49997398730818, 126.3359375 -73.49999797461636, 126.3359375 -73.50005 M126.3359375 -73.49995 C126.3359375 -73.49998169114775, 126.3359375 -73.5000133822955, 126.3359375 -73.50005 M126.3359375 -73.50005 C49.0312897643703 -73.50005, -28.2733579712594 -73.50005, -126.3359375 -73.50005 M126.3359375 -73.50005 C25.80338687450842 -73.50005, -74.72916375098316 -73.50005, -126.3359375 -73.50005" stroke="#466eaa" stroke-width="1.3" fill="none" stroke-dasharray="0 0"></path></g></g><g class="node default " id="mermaid-diagrams-er-mmd-entity-COMMENT-2" data-look="classic" transform="translate(126.5234375, 738.5)"><g class="outer-path" style=""><path d="M-118.5234375 -110.25 L118.5234375 -110.25 L118.5234375 110.25 L-118.5234375 110.25" stroke="none" stroke-width="0" fill="#f9f9f9"></path><path d="M-118.5234375 -110.25 C-40.523349331723125 -110.25, 37.47673883655375 -110.25, 118.5234375 -110.25 M-118.5234375 -110.25 C-56.68148779207405 -110.25, 5.160461915851897 -110.25, 118.5234375 -110.25 M118.5234375 -110.25 C118.5234375 -24.663661614879956, 118.5234375 60.92267677024009, 118.5234375 110.25 M118.5234375 -110.25 C118.5234375 -65.36708758630962, 118.5234375 -20.48417517261923, 118.5234375 110.25 M118.5234375 110.25 C57.11122749147054 110.25, -4.300982517058927 110.25, -118.5234375 110.25 M118.5234375 110.25 C57.578687070972734 110.25, -3.3660633580545323 110.25, -118.5234375 110.25 M-118.5234375 110.25 C-118.5234375 23.204159916675067, -118.5234375 -63.841680166649866, -118.5234375 -110.25 M-118.5234375 110.25 C-118.5234375 65.88106640393846, -118.5234375 21.51213280787691, -118.5234375 -110.25" stroke="#466eaa" stroke-width="1.3" fill="none" stroke-dasharray="0 0"></path></g><g style="" class="row-rect-odd"><path d="M-118.5234375 -73.5 L118.5234375 -73.5 L118.5234375 -36.75 L-118.5234375 -36.75" stroke="none" stroke-width="0" fill="hsl(0, 0%, 100%)"></path><path d="M-118.5234375 -73.5 C-38.17915999540298 -73.5, 42.16511750919403 -73.5, 118.5234375 -73.5 M-118.5234375 -73.5 C-61.79160657801023 -73.5, -5.059775656020463 -73.5, 118.5234375 -73.5 M118.5234375 -73.5 C118.5234375 -58.92151095825032, 118.5234375 -44.34302191650065, 118.5234375 -36.75 M118.5234375 -73.5 C118.5234375 -63.0626291282075, 118.5234375 -52.625258256414995, 118.5234375 -36.75 M118.5234375 -36.75 C41.531829061593186 -36.75, -35.45977937681363 -36.75, -118.5234375 -36.75 M118.5234375 -36.75 C41.56853904496802 -36.75, -35.38635941006396 -36.75, -118.5234375 -36.75 M-118.5234375 -36.75 C-118.5234375 -49.6312790980291, -118.5234375 -62.512558196058194, -118.5234375 -73.5 M-118.5234375 -36.75 C-118.5234375 -49.65523800917923, -118.5234375 -62.56047601835845, -118.5234375 -73.5" stroke="#466eaa" stroke-width="1.3" fill="none" stroke-dasharray="0 0"></path></g><g style="" class="row-rect-even"><path d="M-118.5234375 -36.75 L118.5234375 -36.75 L118.5234375 0 L-118.5234375 0" stroke="none" stroke-width="0" fill="hsl(0, 0%, 100%)"></path><path d="M-118.5234375 -36.75 C-47.340324651302865 -36.75, 23.84278819739427 -36.75, 118.5234375 -36.75 M-118.5234375 -36.75 C-64.2785565782519 -36.75, -10.033675656503789 -36.75, 118.5234375 -36.75 M118.5234375 -36.75 C118.5234375 -23.926489688794874, 118.5234375 -11.102979377589744, 118.5234375 0 M118.5234375 -36.75 C118.5234375 -24.353609984573268, 118.5234375 -11.957219969146536, 118.5234375 0 M118.5234375 0 C47.75995002366943 0, -23.003537452661135 0, -118.5234375 0 M118.5234375 0 C34.55903424979975 0, -49.4053690004005 0, -118.5234375 0 M-118.5234375 0 C-118.5234375 -9.739439507807704, -118.5234375 -19.47887901561541, -118.5234375 -36.75 M-118.5234375 0 C-118.5234375 -10.85863279022291, -118.5234375 -21.71726558044582, -118.5234375 -36.75" stroke="#466eaa" stroke-width="1.3" fill="none" stroke-dasharray="0 0"></path></g><g style="" class="row-rect-odd"><path d="M-118.5234375 0 L118.5234375 0 L118.5234375 36.75 L-118.5234375 36.75" stroke="none" stroke-width="0" fill="hsl(0, 0%, 100%)"></path><path d="M-118.5234375 0 C-68.27683377850849 0, -18.030230057016965 0, 118.5234375 0 M-118.5234375 0 C-55.3514112411374 0, 7.820615017725203 0, 118.5234375 0 M118.5234375 0 C118.5234375 10.94126800975479, 118.5234375 21.88253601950958, 118.5234375 36.75 M118.5234375 0 C118.5234375 12.247578444524606, 118.5234375 24.495156889049213, 118.5234375 36.75 M118.5234375 36.75 C61.78702764942409 36.75, 5.0506177988481795 36.75, -118.5234375 36.75 M118.5234375 36.75 C48.3369634789001 36.75, -21.849510542199795 36.75, -118.5234375 36.75 M-118.5234375 36.75 C-118.5234375 28.13831535352044, -118.5234375 19.526630707040884, -118.5234375 0 M-118.5234375 36.75 C-118.5234375 27.121123899051167, -118.5234375 17.492247798102333, -118.5234375 0" stroke="#466eaa" stroke-width="1.3" fill="none" stroke-dasharray="0 0"></path></g><g style="" class="row-rect-even"><path d="M-118.5234375 36.75 L118.5234375 36.75 L118.5234375 73.5 L-118.5234375 73.5" stroke="none" stroke-width="0" fill="hsl(0, 0%, 100%)"></path><path d="M-118.5234375 36.75 C-28.73900674426085 36.75, 61.0454240114783 36.75, 118.5234375 36.75 M-118.5234375 36.75 C-26.774917076445618 36.75, 64.97360334710876 36.75, 118.5234375 36.75 M118.5234375 36.75 C118.5234375 46.88381096070498, 118.5234375 57.017621921409955, 118.5234375 73.5 M118.5234375 36.75 C118.5234375 49.53874033618824, 118.5234375 62.32748067237648, 118.5234375 73.5 M118.5234375 73.5 C60.91743501910361 73.5, 3.311432538207214 73.5, -118.5234375 73.5 M118.5234375 73.5 C58.12746849034658 73.5, -2.2685005193068406 73.5, -118.5234375 73.5 M-118.5234375 73.5 C-118.5234375 62.16792818624808, -118.5234375 50.83585637249617, -118.5234375 36.75 M-118.5234375 73.5 C-118.5234375 65.65386057899725, -118.5234375 57.80772115799449, -118.5234375 36.75" stroke="#466eaa" stroke-width="1.3" fill="none" stroke-dasharray="0 0"></path></g><g style="" class="row-rect-odd"><path d="M-118.5234375 73.5 L118.5234375 73.5 L118.5234375 110.25 L-118.5234375 110.25" stroke="none" stroke-width="0" fill="hsl(0, 0%, 100%)"></path><path d="M-118.5234375 73.5 C-24.071195781335405 73.5, 70.38104593732919 73.5, 118.5234375 73.5 M-118.5234375 73.5 C-32.718736460138715 73.5, 53.08596457972257 73.5, 118.5234375 73.5 M118.5234375 73.5 C118.5234375 87.14975620799771, 118.5234375 100.79951241599542, 118.5234375 110.25 M118.5234375 73.5 C118.5234375 87.67875785916507, 118.5234375 101.85751571833013, 118.5234375 110.25 M118.5234375 110.25 C42.60317011240885 110.25, -33.317097275182306 110.25, -118.5234375 110.25 M118.5234375 110.25 C56.17904937126347 110.25, -6.165338757473066 110.25, -118.5234375 110.25 M-118.5234375 110.25 C-118.5234375 99.56685193048615, -118.5234375 88.88370386097229, -118.5234375 73.5 M-118.5234375 110.25 C-118.5234375 98.3363984814302, -118.5234375 86.42279696286039, -118.5234375 73.5" stroke="#466eaa" stroke-width="1.3" fill="none" stroke-dasharray="0 0"></path></g><g class="label name" transform="translate(-40.5625, -100.875)" style=""><g><rect class="background" style="stroke: none"></rect></g><text y="-10.1" style=""><tspan class="text-outer-tspan row" x="0" y="-0.1em" dy="1.1em"><tspan font-style="normal" class="text-inner-tspan" font-weight="normal">COMMENT</tspan></tspan></text></g><g class="label attribute-type" transform="translate(-106.0234375, -64.125)" style=""><g><rect class="background" style="stroke: none"></rect></g><text y="-10.1" style=""><tspan class="text-outer-tspan row" x="0" y="-0.1em" dy="1.1em"><tspan font-style="normal" class="text-inner-tspan" font-weight="normal">int</tspan></tspan></text></g><g class="label attribute-name" transform="translate(-17.1953125, -64.125)" style=""><g><rect class="background" style="stroke: none"></rect></g><text y="-10.1" style=""><tspan class="text-outer-tspan row" x="0" y="-0.1em" dy="1.1em"><tspan font-style="normal" class="text-inner-tspan" font-weight="normal">id</tspan></tspan></text></g><g class="label attribute-keys" transform="translate(85.9453125, -64.125)" style=""><g><rect class="background" style="stroke: none"></rect></g><text y="-10.1" style=""><tspan class="text-outer-tspan row" x="0" y="-0.1em" dy="1.1em"><tspan font-style="normal" class="text-inner-tspan" font-weight="normal">PK</tspan></tspan></text></g><g class="label attribute-comment" transform="translate(131.0234375, -64.125)" style=""><g><rect class="background" style="stroke: none"></rect></g><text y="-10.1" style=""><tspan class="text-outer-tspan row" x="0" y="-0.1em" dy="1.1em"></tspan></text></g><g class="label attribute-type" transform="translate(-106.0234375, -27.375)" style=""><g><rect class="background" style="stroke: none"></rect></g><text y="-10.1" style=""><tspan class="text-outer-tspan row" x="0" y="-0.1em" dy="1.1em"><tspan font-style="normal" class="text-inner-tspan" font-weight="normal">int</tspan></tspan></text></g><g class="label attribute-name" transform="translate(-17.1953125, -27.375)" style=""><g><rect class="background" style="stroke: none"></rect></g><text y="-10.1" style=""><tspan class="text-outer-tspan row" x="0" y="-0.1em" dy="1.1em"><tspan font-style="normal" class="text-inner-tspan" font-weight="normal">post_id</tspan></tspan></text></g><g class="label attribute-keys" transform="translate(85.9453125, -27.375)" style=""><g><rect class="background" style="stroke: none"></rect></g><text y="-10.1" style=""><tspan class="text-outer-tspan row" x="0" y="-0.1em" dy="1.1em"><tspan font-style="normal" class="text-inner-tspan" font-weight="normal">FK</tspan></tspan></text></g><g class="label attribute-comment" transform="translate(131.0234375, -27.375)" style=""><g><rect class="background" style="stroke: none"></rect></g><text y="-10.1" style=""><tspan class="text-outer-tspan row" x="0" y="-0.1em" dy="1.1em"></tspan></text></g><g class="label attribute-type" transform="translate(-106.0234375, 9.375)" style=""><g><rect class="background" style="stroke: none"></rect></g><text y="-10.1" style=""><tspan class="text-outer-tspan row" x="0" y="-0.1em" dy="1.1em"><tspan font-style="normal" class="text-inner-tspan" font-weight="normal">int</tspan></tspan></text></g><g class="label attribute-name" transform="translate(-17.1953125, 9.375)" style=""><g><rect class="background" style="stroke: none"></rect></g><text y="-10.1" style=""><tspan class="text-outer-tspan row" x="0" y="-0.1em" dy="1.1em"><tspan font-style="normal" class="text-inner-tspan" font-weight="normal">user_id</tspan></tspan></text></g><g class="label attribute-keys" transform="translate(85.9453125, 9.375)" style=""><g><rect class="background" style="stroke: none"></rect></g><text y="-10.1" style=""><tspan class="text-outer-tspan row" x="0" y="-0.1em" dy="1.1em"><tspan font-style="normal" class="text-inner-tspan" font-weight="normal">FK</tspan></tspan></text></g><g class="label attribute-comment" transform="translate(131.0234375, 9.375)" style=""><g><rect class="background" style="stroke: none"></rect></g><text y="-10.1" style=""><tspan class="text-outer-tspan row" x="0" y="-0.1em" dy="1.1em"></tspan></text></g><g class="label attribute-type" transform="translate(-106.0234375, 46.125)" style=""><g><rect class="background" style="stroke: none"></rect></g><text y="-10.1" style=""><tspan class="text-outer-tspan row" x="0" y="-0.1em" dy="1.1em"><tspan font-style="normal" class="text-inner-tspan" font-weight="normal">text</tspan></tspan></text></g><g class="label attribute-name" transform="translate(-17.1953125, 46.125)" style=""><g><rect class="background" style="stroke: none"></rect></g><text y="-10.1" style=""><tspan class="text-outer-tspan row" x="0" y="-0.1em" dy="1.1em"><tspan font-style="normal" class="text-inner-tspan" font-weight="normal">content</tspan></tspan></text></g><g class="label attribute-keys" transform="translate(85.9453125, 46.125)" style=""><g><rect class="background" style="stroke: none"></rect></g><text y="-10.1" style=""><tspan class="text-outer-tspan row" x="0" y="-0.1em" dy="1.1em"></tspan></text></g><g class="label attribute-comment" transform="translate(131.0234375, 46.125)" style=""><g><rect class="background" style="stroke: none"></rect></g><text y="-10.1" style=""><tspan class="text-outer-tspan row" x="0" y="-0.1em" dy="1.1em"></tspan></text></g><g class="label attribute-type" transform="translate(-106.0234375, 82.875)" style=""><g><rect class="background" style="stroke: none"></rect></g><text y="-10.1" style=""><tspan class="text-outer-tspan row" x="0" y="-0.1em" dy="1.1em"><tspan font-style="normal" class="text-inner-tspan" font-weight="normal">datetime</tspan></tspan></text></g><g class="label attribute-name" transform="translate(-17.1953125, 82.875)" style=""><g><rect class="background" style="stroke: none"></rect></g><text y="-10.1" style=""><tspan class="text-outer-tspan row" x="0" y="-0.1em" dy="1.1em"><tspan font-style="normal" class="text-inner-tspan" font-weight="normal">created_at</tspan></tspan></text></g><g class="label attribute-keys" transform="translate(85.9453125, 82.875)" style=""><g><rect class="background" style="stroke: none"></rect></g><text y="-10.1" style=""><tspan class="text-outer-tspan row" x="0" y="-0.1em" dy="1.1em"></tspan></text></g><g class="label attribute-comment" transform="translate(131.0234375, 82.875)" style=""><g><rect class="background" style="stroke: none"></rect></g><text y="-10.1" style=""><tspan class="text-outer-tspan row" x="0" y="-0.1em" dy="1.1em"></tspan></text></g><g class="divider"><path d="M-118.5234375 -73.50005 L-118.5234375 -73.49995 L118.5234375 -73.49995 L118.5234375 -73.50005" stroke="none" stroke-width="0" fill="#f9f9f9" fill-rule="evenodd"></path><path d="M-118.5234375 -73.50005 C-118.5234375 -73.5000249663181, -118.5234375 -73.49999993263617, -118.5234375 -73.49995 M-118.5234375 -73.50005 C-118.5234375 -73.50002543338226, -118.5234375 -73.50000086676452, -118.5234375 -73.49995 M-118.5234375 -73.49995 C-52.35240859626177 -73.49995, 13.818620307476465 -73.49995, 118.5234375 -73.49995 M-118.5234375 -73.49995 C-43.87584696619429 -73.49995, 30.771743567611423 -73.49995, 118.5234375 -73.49995 M118.5234375 -73.49995 C118.5234375 -73.49998885684579, 118.5234375 -73.50002771369158, 118.5234375 -73.50005 M118.5234375 -73.49995 C118.5234375 -73.49998369887543, 118.5234375 -73.50001739775087, 118.5234375 -73.50005 M118.5234375 -73.50005 C35.64139048268733 -73.50005, -47.240656534625344 -73.50005, -118.5234375 -73.50005 M118.5234375 -73.50005 C48.13971439232466 -73.50005, -22.244008715350674 -73.50005, -118.5234375 -73.50005" stroke="#466eaa" stroke-width="1.3" fill="none" stroke-dasharray="0 0"></path></g><g class="divider"><path d="M-29.6953625 -73.5 L-29.6952625 -73.5 L-29.6952625 110.25 L-29.6953625 110.25" stroke="none" stroke-width="0" fill="#f9f9f9" fill-rule="evenodd"></path><path d="M-29.6953625 -73.5 C-29.69533627084418 -73.5, -29.695310041688362 -73.5, -29.6952625 -73.5 M-29.6953625 -73.5 C-29.69534245205789 -73.5, -29.69532240411578 -73.5, -29.6952625 -73.5 M-29.6952625 -73.5 C-29.6952625 -26.021013398229854, -29.6952625 21.45797320354029, -29.6952625 110.25 M-29.6952625 -73.5 C-29.6952625 -4.850176577470151, -29.6952625 63.7996468450597, -29.6952625 110.25 M-29.6952625 110.25 C-29.695282809027017 110.25, -29.69530311805403 110.25, -29.6953625 110.25 M-29.6952625 110.25 C-29.69530030364187 110.25, -29.69533810728374 110.25, -29.6953625 110.25 M-29.6953625 110.25 C-29.6953625 61.39529286632781, -29.6953625 12.540585732655614, -29.6953625 -73.5 M-29.6953625 110.25 C-29.6953625 42.493843498534375, -29.6953625 -25.26231300293125, -29.6953625 -73.5" stroke="#466eaa" stroke-width="1.3" fill="none" stroke-dasharray="0 0"></path></g><g class="divider"><path d="M73.4452625 -73.5 L73.4453625 -73.5 L73.4453625 110.25 L73.4452625 110.25" stroke="none" stroke-width="0" fill="#f9f9f9" fill-rule="evenodd"></path><path d="M73.4452625 -73.5 C73.44529949201046 -73.5, 73.44533648402093 -73.5, 73.4453625 -73.5 M73.4452625 -73.5 C73.44529662125798 -73.5, 73.44533074251596 -73.5, 73.4453625 -73.5 M73.4453625 -73.5 C73.4453625 -31.419939274597773, 73.4453625 10.660121450804454, 73.4453625 110.25 M73.4453625 -73.5 C73.4453625 -19.724911648207865, 73.4453625 34.05017670358427, 73.4453625 110.25 M73.4453625 110.25 C73.44534107631746 110.25, 73.44531965263494 110.25, 73.4452625 110.25 M73.4453625 110.25 C73.44534044896226 110.25, 73.44531839792452 110.25, 73.4452625 110.25 M73.4452625 110.25 C73.4452625 69.26375416188617, 73.4452625 28.277508323772352, 73.4452625 -73.5 M73.4452625 110.25 C73.4452625 41.770523774120875, 73.4452625 -26.70895245175825, 73.4452625 -73.5" stroke="#466eaa" stroke-width="1.3" fill="none" stroke-dasharray="0 0"></path></g><g class="divider"><path d="M-118.5234375 -73.50005 L-118.5234375 -73.49995 L118.5234375 -73.49995 L118.5234375 -73.50005" stroke="none" stroke-width="0" fill="#f9f9f9" fill-rule="evenodd"></path><path d="M-118.5234375 -73.50005 C-118.5234375 -73.50001145894534, -118.5234375 -73.49997291789066, -118.5234375 -73.49995 M-118.5234375 -73.50005 C-118.5234375 -73.50001613674128, -118.5234375 -73.49998227348254, -118.5234375 -73.49995 M-118.5234375 -73.49995 C-68.17835176570841 -73.49995, -17.833266031416812 -73.49995, 118.5234375 -73.49995 M-118.5234375 -73.49995 C-49.77358656487418 -73.49995, 18.97626437025164 -73.49995, 118.5234375 -73.49995 M118.5234375 -73.49995 C118.5234375 -73.49998054027067, 118.5234375 -73.50001108054134, 118.5234375 -73.50005 M118.5234375 -73.49995 C118.5234375 -73.49998216714663, 118.5234375 -73.50001433429325, 118.5234375 -73.50005 M118.5234375 -73.50005 C40.253412266552644 -73.50005, -38.01661296689471 -73.50005, -118.5234375 -73.50005 M118.5234375 -73.50005 C62.30325646127491 -73.50005, 6.083075422549825 -73.50005, -118.5234375 -73.50005" stroke="#466eaa" stroke-width="1.3" fill="none" stroke-dasharray="0 0"></path></g></g><g class="node default " id="mermaid-diagrams-er-mmd-entity-CATEGORY-3" data-look="classic" transform="translate(473.265625, 738.5)"><g class="outer-path" style=""><path d="M-88.21875 -73.5 L88.21875 -73.5 L88.21875 73.5 L-88.21875 73.5" stroke="none" stroke-width="0" fill="#f9f9f9"></path><path d="M-88.21875 -73.5 C-47.037332251464264 -73.5, -5.8559145029285276 -73.5, 88.21875 -73.5 M-88.21875 -73.5 C-38.73359232450003 -73.5, 10.75156535099994 -73.5, 88.21875 -73.5 M88.21875 -73.5 C88.21875 -40.29342290524966, 88.21875 -7.086845810499327, 88.21875 73.5 M88.21875 -73.5 C88.21875 -31.63819623075848, 88.21875 10.223607538483037, 88.21875 73.5 M88.21875 73.5 C21.780834578550085 73.5, -44.65708084289983 73.5, -88.21875 73.5 M88.21875 73.5 C22.999494617735778 73.5, -42.219760764528445 73.5, -88.21875 73.5 M-88.21875 73.5 C-88.21875 29.394638454638688, -88.21875 -14.710723090722624, -88.21875 -73.5 M-88.21875 73.5 C-88.21875 27.888164905445443, -88.21875 -17.723670189109114, -88.21875 -73.5" stroke="#466eaa" stroke-width="1.3" fill="none" stroke-dasharray="0 0"></path></g><g style="" class="row-rect-odd"><path d="M-88.21875 -36.75 L88.21875 -36.75 L88.21875 0 L-88.21875 0" stroke="none" stroke-width="0" fill="hsl(0, 0%, 100%)"></path><path d="M-88.21875 -36.75 C-22.43816118391834 -36.75, 43.34242763216332 -36.75, 88.21875 -36.75 M-88.21875 -36.75 C-28.58318098406285 -36.75, 31.0523880318743 -36.75, 88.21875 -36.75 M88.21875 -36.75 C88.21875 -27.685534810416122, 88.21875 -18.621069620832245, 88.21875 0 M88.21875 -36.75 C88.21875 -25.180869152541355, 88.21875 -13.611738305082707, 88.21875 0 M88.21875 0 C29.916359432808783 0, -28.386031134382435 0, -88.21875 0 M88.21875 0 C48.46260566349844 0, 8.706461326996873 0, -88.21875 0 M-88.21875 0 C-88.21875 -10.869288430012453, -88.21875 -21.738576860024907, -88.21875 -36.75 M-88.21875 0 C-88.21875 -10.150005226047453, -88.21875 -20.300010452094906, -88.21875 -36.75" stroke="#466eaa" stroke-width="1.3" fill="none" stroke-dasharray="0 0"></path></g><g style="" class="row-rect-even"><path d="M-88.21875 0 L88.21875 0 L88.21875 36.75 L-88.21875 36.75" stroke="none" stroke-width="0" fill="hsl(0, 0%, 100%)"></path><path d="M-88.21875 0 C-21.873606261804923 0, 44.471537476390154 0, 88.21875 0 M-88.21875 0 C-39.726606904452154 0, 8.765536191095691 0, 88.21875 0 M88.21875 0 C88.21875 14.378702620511591, 88.21875 28.757405241023182, 88.21875 36.75 M88.21875 0 C88.21875 10.718450688529655, 88.21875 21.43690137705931, 88.21875 36.75 M88.21875 36.75 C32.16322530171626 36.75, -23.89229939656748 36.75, -88.21875 36.75 M88.21875 36.75 C40.344723128614774 36.75, -7.529303742770452 36.75, -88.21875 36.75 M-88.21875 36.75 C-88.21875 27.224184603635173, -88.21875 17.698369207270343, -88.21875 0 M-88.21875 36.75 C-88.21875 29.039489674113216, -88.21875 21.328979348226433, -88.21875 0" stroke="#466eaa" stroke-width="1.3" fill="none" stroke-dasharray="0 0"></path></g><g style="" class="row-rect-odd"><path d="M-88.21875 36.75 L88.21875 36.75 L88.21875 73.5 L-88.21875 73.5" stroke="none" stroke-width="0" fill="hsl(0, 0%, 100%)"></path><path d="M-88.21875 36.75 C-21.346984250245868 36.75, 45.524781499508265 36.75, 88.21875 36.75 M-88.21875 36.75 C-21.79637397530267 36.75, 44.62600204939466 36.75, 88.21875 36.75 M88.21875 36.75 C88.21875 47.55929350253461, 88.21875 58.368587005069216, 88.21875 73.5 M88.21875 36.75 C88.21875 46.92565880211191, 88.21875 57.10131760422383, 88.21875 73.5 M88.21875 73.5 C49.389585682117506 73.5, 10.560421364235012 73.5, -88.21875 73.5 M88.21875 73.5 C39.9563205411099 73.5, -8.306108917780193 73.5, -88.21875 73.5 M-88.21875 73.5 C-88.21875 59.84950960563532, -88.21875 46.19901921127064, -88.21875 36.75 M-88.21875 73.5 C-88.21875 64.9647666510011, -88.21875 56.4295333020022, -88.21875 36.75" stroke="#466eaa" stroke-width="1.3" fill="none" stroke-dasharray="0 0"></path></g><g class="label name" transform="translate(-41.34375, -64.125)" style=""><g><rect class="background" style="stroke: none"></rect></g><text y="-10.1" style=""><tspan class="text-outer-tspan row" x="0" y="-0.1em" dy="1.1em"><tspan font-style="normal" class="text-inner-tspan" font-weight="normal">CATEGORY</tspan></tspan></text></g><g class="label attribute-type" transform="translate(-75.71875, -27.375)" style=""><g><rect class="background" style="stroke: none"></rect></g><text y="-10.1" style=""><tspan class="text-outer-tspan row" x="0" y="-0.1em" dy="1.1em"><tspan font-style="normal" class="text-inner-tspan" font-weight="normal">int</tspan></tspan></text></g><g class="label attribute-name" transform="translate(-9.34375, -27.375)" style=""><g><rect class="background" style="stroke: none"></rect></g><text y="-10.1" style=""><tspan class="text-outer-tspan row" x="0" y="-0.1em" dy="1.1em"><tspan font-style="normal" class="text-inner-tspan" font-weight="normal">id</tspan></tspan></text></g><g class="label attribute-keys" transform="translate(55.640625, -27.375)" style=""><g><rect class="background" style="stroke: none"></rect></g><text y="-10.1" style=""><tspan class="text-outer-tspan row" x="0" y="-0.1em" dy="1.1em"><tspan font-style="normal" class="text-inner-tspan" font-weight="normal">PK</tspan></tspan></text></g><g class="label attribute-comment" transform="translate(100.71875, -27.375)" style=""><g><rect class="background" style="stroke: none"></rect></g><text y="-10.1" style=""><tspan class="text-outer-tspan row" x="0" y="-0.1em" dy="1.1em"></tspan></text></g><g class="label attribute-type" transform="translate(-75.71875, 9.375)" style=""><g><rect class="background" style="stroke: none"></rect></g><text y="-10.1" style=""><tspan class="text-outer-tspan row" x="0" y="-0.1em" dy="1.1em"><tspan font-style="normal" class="text-inner-tspan" font-weight="normal">string</tspan></tspan></text></g><g class="label attribute-name" transform="translate(-9.34375, 9.375)" style=""><g><rect class="background" style="stroke: none"></rect></g><text y="-10.1" style=""><tspan class="text-outer-tspan row" x="0" y="-0.1em" dy="1.1em"><tspan font-style="normal" class="text-inner-tspan" font-weight="normal">name</tspan></tspan></text></g><g class="label attribute-keys" transform="translate(55.640625, 9.375)" style=""><g><rect class="background" style="stroke: none"></rect></g><text y="-10.1" style=""><tspan class="text-outer-tspan row" x="0" y="-0.1em" dy="1.1em"></tspan></text></g><g class="label attribute-comment" transform="translate(100.71875, 9.375)" style=""><g><rect class="background" style="stroke: none"></rect></g><text y="-10.1" style=""><tspan class="text-outer-tspan row" x="0" y="-0.1em" dy="1.1em"></tspan></text></g><g class="label attribute-type" transform="translate(-75.71875, 46.125)" style=""><g><rect class="background" style="stroke: none"></rect></g><text y="-10.1" style=""><tspan class="text-outer-tspan row" x="0" y="-0.1em" dy="1.1em"><tspan font-style="normal" class="text-inner-tspan" font-weight="normal">string</tspan></tspan></text></g><g class="label attribute-name" transform="translate(-9.34375, 46.125)" style=""><g><rect class="background" style="stroke: none"></rect></g><text y="-10.1" style=""><tspan class="text-outer-tspan row" x="0" y="-0.1em" dy="1.1em"><tspan font-style="normal" class="text-inner-tspan" font-weight="normal">slug</tspan></tspan></text></g><g class="label attribute-keys" transform="translate(55.640625, 46.125)" style=""><g><rect class="background" style="stroke: none"></rect></g><text y="-10.1" style=""><tspan class="text-outer-tspan row" x="0" y="-0.1em" dy="1.1em"></tspan></text></g><g class="label attribute-comment" transform="translate(100.71875, 46.125)" style=""><g><rect class="background" style="stroke: none"></rect></g><text y="-10.1" style=""><tspan class="text-outer-tspan row" x="0" y="-0.1em" dy="1.1em"></tspan></text></g><g class="divider"><path d="M-88.21875 -36.75005 L-88.21875 -36.74995 L88.21875 -36.74995 L88.21875 -36.75005" stroke="none" stroke-width="0" fill="#f9f9f9" fill-rule="evenodd"></path><path d="M-88.21875 -36.75005 C-88.21875 -36.750012362208345, -88.21875 -36.74997472441669, -88.21875 -36.74995 M-88.21875 -36.75005 C-88.21875 -36.7500130220737, -88.21875 -36.74997604414741, -88.21875 -36.74995 M-88.21875 -36.74995 C-39.56527004068018 -36.74995, 9.088209918639635 -36.74995, 88.21875 -36.74995 M-88.21875 -36.74995 C-42.43068137763577 -36.74995, 3.357387244728457 -36.74995, 88.21875 -36.74995 M88.21875 -36.74995 C88.21875 -36.74998742354067, 88.21875 -36.75002484708134, 88.21875 -36.75005 M88.21875 -36.74995 C88.21875 -36.74997807652797, 88.21875 -36.750006153055935, 88.21875 -36.75005 M88.21875 -36.75005 C19.548361209605247 -36.75005, -49.122027580789506 -36.75005, -88.21875 -36.75005 M88.21875 -36.75005 C25.709492029981163 -36.75005, -36.79976594003767 -36.75005, -88.21875 -36.75005" stroke="#466eaa" stroke-width="1.3" fill="none" stroke-dasharray="0 0"></path></g><g class="divider"><path d="M-21.8438 -36.75 L-21.8437 -36.75 L-21.8437 73.5 L-21.8438 73.5" stroke="none" stroke-width="0" fill="#f9f9f9" fill-rule="evenodd"></path><path d="M-21.8438 -36.75 C-21.843776787767943 -36.75, -21.84375357553588 -36.75, -21.8437 -36.75 M-21.8438 -36.75 C-21.843778542119548 -36.75, -21.843757084239098 -36.75, -21.8437 -36.75 M-21.8437 -36.75 C-21.8437 -8.631444526965808, -21.8437 19.487110946068384, -21.8437 73.5 M-21.8437 -36.75 C-21.8437 6.103336620984635, -21.8437 48.95667324196927, -21.8437 73.5 M-21.8437 73.5 C-21.843725326848645 73.5, -21.84375065369729 73.5, -21.8438 73.5 M-21.8437 73.5 C-21.84373551746816 73.5, -21.843771034936324 73.5, -21.8438 73.5 M-21.8438 73.5 C-21.8438 49.47813428964555, -21.8438 25.456268579291113, -21.8438 -36.75 M-21.8438 73.5 C-21.8438 37.92512809319363, -21.8438 2.3502561863872558, -21.8438 -36.75" stroke="#466eaa" stroke-width="1.3" fill="none" stroke-dasharray="0 0"></path></g><g class="divider"><path d="M43.140575 -36.75 L43.140675 -36.75 L43.140675 73.5 L43.140575 73.5" stroke="none" stroke-width="0" fill="#f9f9f9" fill-rule="evenodd"></path><path d="M43.140575 -36.75 C43.140614535864614 -36.75, 43.14065407172922 -36.75, 43.140675 -36.75 M43.140575 -36.75 C43.14060578717946 -36.75, 43.140636574358915 -36.75, 43.140675 -36.75 M43.140675 -36.75 C43.140675 -7.971673999298439, 43.140675 20.806652001403123, 43.140675 73.5 M43.140675 -36.75 C43.140675 -0.27351668757528813, 43.140675 36.202966624849424, 43.140675 73.5 M43.140675 73.5 C43.14063973300367 73.5, 43.14060446600733 73.5, 43.140575 73.5 M43.140675 73.5 C43.14064285936072 73.5, 43.140610718721426 73.5, 43.140575 73.5 M43.140575 73.5 C43.140575 41.61008322410301, 43.140575 9.720166448206022, 43.140575 -36.75 M43.140575 73.5 C43.140575 45.19804537185116, 43.140575 16.896090743702317, 43.140575 -36.75" stroke="#466eaa" stroke-width="1.3" fill="none" stroke-dasharray="0 0"></path></g><g class="divider"><path d="M-88.21875 -36.75005 L-88.21875 -36.74995 L88.21875 -36.74995 L88.21875 -36.75005" stroke="none" stroke-width="0" fill="#f9f9f9" fill-rule="evenodd"></path><path d="M-88.21875 -36.75005 C-88.21875 -36.75001013618564, -88.21875 -36.74997027237128, -88.21875 -36.74995 M-88.21875 -36.75005 C-88.21875 -36.750015523110946, -88.21875 -36.74998104622188, -88.21875 -36.74995 M-88.21875 -36.74995 C-19.641833533135 -36.74995, 48.93508293373 -36.74995, 88.21875 -36.74995 M-88.21875 -36.74995 C-45.41465005271921 -36.74995, -2.6105501054384206 -36.74995, 88.21875 -36.74995 M88.21875 -36.74995 C88.21875 -36.7499835032386, 88.21875 -36.7500170064772, 88.21875 -36.75005 M88.21875 -36.74995 C88.21875 -36.74997060288241, 88.21875 -36.749991205764815, 88.21875 -36.75005 M88.21875 -36.75005 C49.77805525427612 -36.75005, 11.337360508552237 -36.75005, -88.21875 -36.75005 M88.21875 -36.75005 C31.636519312751453 -36.75005, -24.945711374497094 -36.75005, -88.21875 -36.75005" stroke="#466eaa" stroke-width="1.3" fill="none" stroke-dasharray="0 0"></path></g></g></g></g></g><defs><filter id="mermaid-diagrams-er-mmd-drop-shadow" height="130%" width="130%"><feDropShadow dx="4" dy="4" stdDeviation="0" flood-opacity="0.06" flood-color="#000000"></feDropShadow></filter></defs><defs><filter id="mermaid-diagrams-er-mmd-drop-shadow-small" height="150%" width="150%"><feDropShadow dx="2" dy="2" stdDeviation="0" flood-opacity="0.06" flood-color="#000000"></feDropShadow></filter></defs><linearGradient id="mermaid-diagrams-er-mmd-gradient" gradientUnits="objectBoundingBox" x1="0%" y1="0%" x2="100%" y2="0%"><stop offset="0%" stop-color="#466eaa" stop-opacity="1"></stop><stop offset="100%" stop-color="hsl(0, 0%, 87.6470588235%)" stop-opacity="1"></stop></linearGradient></svg>
