<svg id="mermaid-diagrams-er-mmd" xmlns="http://www.w3.org/2000/svg" class="erDiagram" viewBox="0 12 569.484375 946.75" role="graphics-document document" aria-roledescription="er" aria-describedby="chart-desc-mermaid-diagrams-er-mmd" aria-labelledby="chart-title-mermaid-diagrams-er-mmd" width="569.484375" height="946.75"><title id="chart-title-mermaid-diagrams-er-mmd">Blog Database Schema</title><desc id="chart-desc-mermaid-diagrams-er-mmd">This entity relationship diagram shows the database schema for a blog system. Users can write many posts, posts can have many comments, and posts belong to one category. The diagram shows the relationships between USER, POST, COMMENT, and CATEGORY entities with their respective fields and data types.</desc><style>#mermaid-diagrams-er-mmd{font-family:"Inter",system,-apple-system,"system-ui","Helvetica Neue","Lucida Grande",sans-serif;font-size:16px;fill:#000000;}@keyframes edge-animation-frame{from{stroke-dashoffset:0;}}@keyframes dash{to{stroke-dashoffset:0;}}#mermaid-diagrams-er-mmd .edge-animation-slow{stroke-dasharray:9,5!important;stroke-dashoffset:900;animation:dash 50s linear infinite;stroke-linecap:round;}#mermaid-diagrams-er-mmd .edge-animation-fast{stroke-dasharray:9,5!important;stroke-dashoffset:900;animation:dash 20s linear infinite;stroke-linecap:round;}#mermaid-diagrams-er-mmd .error-icon{fill:#f9f9f9;}#mermaid-diagrams-er-mmd .error-text{fill:#D55E00;stroke:#D55E00;}#mermaid-diagrams-er-mmd .edge-thickness-normal{stroke-width:1px;}#mermaid-diagrams-er-mmd .edge-thickness-thick{stroke-width:3.5px;}#mermaid-diagrams-er-mmd .edge-pattern-solid{stroke-dasharray:0;}#mermaid-diagrams-er-mmd .edge-thickness-invisible{stroke-width:0;fill:none;}#mermaid-diagrams-er-mmd .edge-pattern-dashed{stroke-dasharray:3;}#mermaid-diagrams-er-mmd .edge-pattern-dotted{stroke-dasharray:2;}#mermaid-diagrams-er-mmd .marker{fill:#666666;stroke:#666666;}#mermaid-diagrams-er-mmd .marker.cross{stroke:#666666;}#mermaid-diagrams-er-mmd svg{font-family:"Inter",system,-apple-system,"system-ui","Helvetica Neue","Lucida Grande",sans-serif;font-size:16px;}#mermaid-diagrams-er-mmd p{margin:0;}#mermaid-diagrams-er-mmd .entityBox{fill:#f9f9f9;stroke:#466eaa;}#mermaid-diagrams-er-mmd .relationshipLabelBox{fill:#ffffff;opacity:0.7;background-color:#ffffff;}#mermaid-diagrams-er-mmd .relationshipLabelBox rect{opacity:0.5;}#mermaid-diagrams-er-mmd .labelBkg{background-color:rgba(255, 255, 255, 0.5);}#mermaid-diagrams-er-mmd .edgeLabel{background-color:#f9f9f9;}#mermaid-diagrams-er-mmd .edgeLabel .label rect{fill:#f9f9f9;}#mermaid-diagrams-er-mmd .edgeLabel .label text{fill:#000000;}#mermaid-diagrams-er-mmd .edgeLabel .label{fill:#466eaa;font-size:14px;}#mermaid-diagrams-er-mmd .label{font-family:"Inter",system,-apple-system,"system-ui","Helvetica Neue","Lucida Grande",sans-serif;color:#000000;}#mermaid-diagrams-er-mmd .edge-pattern-dashed{stroke-dasharray:8,8;}#mermaid-diagrams-er-mmd .node rect,#mermaid-diagrams-er-mmd .node circle,#mermaid-diagrams-er-mmd .node ellipse,#mermaid-diagrams-er-mmd .node polygon{fill:#f9f9f9;stroke:#466eaa;stroke-width:1px;}#mermaid-diagrams-er-mmd .relationshipLine{stroke:#666666;stroke-width:1px;fill:none;}#mermaid-diagrams-er-mmd .marker{fill:none!important;stroke:#666666!important;stroke-width:1;}#mermaid-diagrams-er-mmd [data-look=neo].labelBkg{background-color:rgba(255, 255, 255, 0.5);}#mermaid-diagrams-er-mmd .node .neo-node{stroke:#466eaa;}#mermaid-diagrams-er-mmd [data-look="neo"].node rect,#mermaid-diagrams-er-mmd [data-look="neo"].cluster rect,#mermaid-diagrams-er-mmd [data-look="neo"].node polygon{stroke:url(#mermaid-diagrams-er-mmd-gradient);filter:drop-shadow( 1px 2px 2px rgba(185,185,185,1));}#mermaid-diagrams-er-mmd [data-look="neo"].node path{stroke:url(#mermaid-diagrams-er-mmd-gradient);stroke-width:1px;}#mermaid-diagrams-er-mmd [data-look="neo"].node .outer-path{filter:drop-shadow( 1px 2px 2px rgba(185,185,185,1));}#mermaid-diagrams-er-mmd [data-look="neo"].node .neo-line path{stroke:#466eaa;filter:none;}#mermaid-diagrams-er-mmd [data-look="neo"].node circle{stroke:url(#mermaid-diagrams-er-mmd-gradient);filter:drop-shadow( 1px 2px 2px rgba(185,185,185,1));}#mermaid-diagrams-er-mmd [data-look="neo"].node circle .state-start{fill:#000000;}#mermaid-diagrams-er-mmd [data-look="neo"].icon-shape .icon{fill:url(#mermaid-diagrams-er-mmd-gradient);filter:drop-shadow( 1px 2px 2px rgba(185,185,185,1));}#mermaid-diagrams-er-mmd [data-look="neo"].icon-shape .icon-neo path{stroke:url(#mermaid-diagrams-er-mmd-gradient);filter:drop-shadow( 1px 2px 2px rgba(185,185,185,1));}#mermaid-diagrams-er-mmd :root{--mermaid-font-family:"trebuchet ms",verdana,arial,sans-serif;}</style><g><defs><marker id="mermaid-diagrams-er-mmd_er-onlyOneStart" class="marker onlyOne er" refX="0" refY="9" markerWidth="18" markerHeight="18" orient="auto"><path d="M9,0 L9,18 M15,0 L15,18"></path></marker></defs><defs><marker id="mermaid-diagrams-er-mmd_er-onlyOneEnd" class="marker onlyOne er" refX="18" refY="9" markerWidth="18" markerHeight="18" orient="auto"><path d="M3,0 L3,18 M9,0 L9,18"></path></marker></defs><defs><marker id="mermaid-diagrams-er-mmd_er-zeroOrOneStart" class="marker zeroOrOne er" refX="0" refY="9" markerWidth="30" markerHeight="18" orient="auto"><circle fill="white" cx="21" cy="9" r="6"></circle><path d="M9,0 L9,18"></path></marker></defs><defs><marker id="mermaid-diagrams-er-mmd_er-zeroOrOneEnd" class="marker zeroOrOne er" refX="30" refY="9" markerWidth="30" markerHeight="18" orient="auto"><circle fill="white" cx="9" cy="9" r="6"></circle><path d="M21,0 L21,18"></path></marker></defs><defs><marker id="mermaid-diagrams-er-mmd_er-oneOrMoreStart" class="marker oneOrMore er" refX="18" refY="18" markerWidth="45" markerHeight="36" orient="auto"><path d="M0,18 Q 18,0 36,18 Q 18,36 0,18 M42,9 L42,27"></path></marker></defs><defs><marker id="mermaid-diagrams-er-mmd_er-oneOrMoreEnd" class="marker oneOrMore er" refX="27" refY="18" markerWidth="45" markerHeight="36" orient="auto"><path d="M3,9 L3,27 M9,18 Q27,0 45,18 Q27,36 9,18"></path></marker></defs><defs><marker id="mermaid-diagrams-er-mmd_er-zeroOrMoreStart" class="marker zeroOrMore er" refX="18" refY="18" markerWidth="57" markerHeight="36" orient="auto"><circle fill="white" cx="48" cy="18" r="6"></circle><path d="M0,18 Q18,0 36,18 Q18,36 0,18"></path></marker></defs><defs><marker id="mermaid-diagrams-er-mmd_er-zeroOrMoreEnd" class="marker zeroOrMore er" refX="39" refY="18" markerWidth="57" markerHeight="36" orient="auto"><circle fill="white" cx="9" cy="18" r="6"></circle><path d="M21,18 Q39,0 57,18 Q39,36 21,18"></path></marker></defs><g class="root"><g class="clusters"></g><g class="edgePaths"><path d="M299.895,233.75L299.895,242.25C299.895,250.75,299.895,267.75,299.895,284.75C299.895,301.75,299.895,318.75,299.895,327.25L299.895,335.75" id="mermaid-diagrams-er-mmd-id_entity-USER-0_entity-POST-1_0" class=" edge-thickness-normal edge-pattern-solid relationshipLine" style="undefined;;;undefined" data-edge="true" data-et="edge" data-id="id_entity-USER-0_entity-POST-1_0" data-points="W3sieCI6Mjk5Ljg5NDUzMTI1LCJ5IjoyMzMuNzV9LHsieCI6Mjk5Ljg5NDUzMTI1LCJ5IjoyODQuNzV9LHsieCI6Mjk5Ljg5NDUzMTI1LCJ5IjozMzUuNzV9XQ==" data-look="classic" marker-start="url(#mermaid-diagrams-er-mmd_er-onlyOneStart)" marker-end="url(#mermaid-diagrams-er-mmd_er-zeroOrMoreEnd)"></path><path d="M175.851,592.25L167.63,600.75C159.408,609.25,142.966,626.25,134.745,643.25C126.523,660.25,126.523,677.25,126.523,685.75L126.523,694.25" id="mermaid-diagrams-er-mmd-id_entity-POST-1_entity-COMMENT-2_1" class=" edge-thickness-normal edge-pattern-solid relationshipLine" style="undefined;;;undefined" data-edge="true" data-et="edge" data-id="id_entity-POST-1_entity-COMMENT-2_1" data-points="W3sieCI6MTc1Ljg1MDc3Nzk4MTE3MTU1LCJ5Ijo1OTIuMjV9LHsieCI6MTI2LjUyMzQzNzUsInkiOjY0My4yNX0seyJ4IjoxMjYuNTIzNDM3NSwieSI6Njk0LjI1fV0=" data-look="classic" marker-start="url(#mermaid-diagrams-er-mmd_er-onlyOneStart)" marker-end="url(#mermaid-diagrams-er-mmd_er-zeroOrMoreEnd)"></path><path d="M423.938,592.25L432.16,600.75C440.381,609.25,456.823,626.25,465.044,650.375C473.266,674.5,473.266,705.75,473.266,721.375L473.266,737" id="mermaid-diagrams-er-mmd-id_entity-POST-1_entity-CATEGORY-3_2" class=" edge-thickness-normal edge-pattern-solid relationshipLine" style="undefined;;;undefined" data-edge="true" data-et="edge" data-id="id_entity-POST-1_entity-CATEGORY-3_2" data-points="W3sieCI6NDIzLjkzODI4NDUxODgyODUsInkiOjU5Mi4yNX0seyJ4Ijo0NzMuMjY1NjI1LCJ5Ijo2NDMuMjV9LHsieCI6NDczLjI2NTYyNSwieSI6NzM3fV0=" data-look="classic" marker-start="url(#mermaid-diagrams-er-mmd_er-zeroOrMoreStart)" marker-end="url(#mermaid-diagrams-er-mmd_er-onlyOneEnd)"></path></g><g class="edgeLabels"><g class="edgeLabel" transform="translate(299.89453125, 284.75)"><g class="label" data-id="id_entity-USER-0_entity-POST-1_0" transform="translate(0, -8.500000953674316)"><g><rect class="background" style="" x="-23.890625" y="-1" width="47.78125" height="22"></rect><text y="-10.1" text-anchor="middle" style=""><tspan class="text-outer-tspan row" x="0" y="-0.1em" dy="1.1em" text-anchor="middle"><tspan font-style="normal" class="text-inner-tspan" font-weight="normal">writes</tspan></tspan></text></g></g></g><g class="edgeLabel" transform="translate(126.5234375, 643.25)"><g class="label" data-id="id_entity-POST-1_entity-COMMENT-2_1" transform="translate(0, -8.500000953674316)"><g><rect class="background" style="" x="-14.84375" y="-1" width="29.6875" height="22"></rect><text y="-10.1" text-anchor="middle" style=""><tspan class="text-outer-tspan row" x="0" y="-0.1em" dy="1.1em" text-anchor="middle"><tspan font-style="normal" class="text-inner-tspan" font-weight="normal">has</tspan></tspan></text></g></g></g><g class="edgeLabel" transform="translate(473.265625, 643.25)"><g class="label" data-id="id_entity-POST-1_entity-CATEGORY-3_2" transform="translate(0, -8.500000953674316)"><g><rect class="background" style="" x="-42.5703125" y="-1" width="85.140625" height="22"></rect><text y="-10.1" text-anchor="middle" style=""><tspan class="text-outer-tspan row" x="0" y="-0.1em" dy="1.1em" text-anchor="middle"><tspan font-style="normal" class="text-inner-tspan" font-weight="normal">belongs_to</tspan></tspan></text></g></g></g></g><g class="nodes"><g class="node default " id="mermaid-diagrams-er-mmd-entity-USER-0" data-look="classic" transform="translate(299.89453125, 126.875)"><g class="outer-path" style=""><path d="M-118.5234375 -106.875 L118.5234375 -106.875 L118.5234375 106.875 L-118.5234375 106.875" stroke="none" stroke-width="0" fill="#f9f9f9"></path><path d="M-118.5234375 -106.875 C-38.87299203612224 -106.875, 40.77745342775552 -106.875, 118.5234375 -106.875 M-118.5234375 -106.875 C-55.06866628754835 -106.875, 8.386104924903293 -106.875, 118.5234375 -106.875 M118.5234375 -106.875 C118.5234375 -55.68180300581156, 118.5234375 -4.488606011623119, 118.5234375 106.875 M118.5234375 -106.875 C118.5234375 -58.947176177837434, 118.5234375 -11.019352355674869, 118.5234375 106.875 M118.5234375 106.875 C47.17367466875575 106.875, -24.176088162488497 106.875, -118.5234375 106.875 M118.5234375 106.875 C45.21491668118347 106.875, -28.093604137633065 106.875, -118.5234375 106.875 M-118.5234375 106.875 C-118.5234375 48.62095127089642, -118.5234375 -9.63309745820716, -118.5234375 -106.875 M-118.5234375 106.875 C-118.5234375 34.64604390882644, -118.5234375 -37.582912182347116, -118.5234375 -106.875" stroke="#466eaa" stroke-width="1.3" fill="none" stroke-dasharray="0 0"></path></g><g style="" class="row-rect-odd"><path d="M-118.5234375 -64.125 L118.5234375 -64.125 L118.5234375 -21.375 L-118.5234375 -21.375" stroke="none" stroke-width="0" fill="hsl(0, 0%, 100%)"></path><path d="M-118.5234375 -64.125 C-32.620434950754 -64.125, 53.282567598491994 -64.125, 118.5234375 -64.125 M-118.5234375 -64.125 C-36.13947687410612 -64.125, 46.244483751787754 -64.125, 118.5234375 -64.125 M118.5234375 -64.125 C118.5234375 -50.82386389969513, 118.5234375 -37.52272779939025, 118.5234375 -21.375 M118.5234375 -64.125 C118.5234375 -49.26441994525662, 118.5234375 -34.40383989051323, 118.5234375 -21.375 M118.5234375 -21.375 C38.847868216157934 -21.375, -40.82770106768413 -21.375, -118.5234375 -21.375 M118.5234375 -21.375 C32.806946277632065 -21.375, -52.90954494473587 -21.375, -118.5234375 -21.375 M-118.5234375 -21.375 C-118.5234375 -36.24026203181576, -118.5234375 -51.10552406363152, -118.5234375 -64.125 M-118.5234375 -21.375 C-118.5234375 -33.98340829411919, -118.5234375 -46.59181658823837, -118.5234375 -64.125" stroke="#466eaa" stroke-width="1.3" fill="none" stroke-dasharray="0 0"></path></g><g style="" class="row-rect-even"><path d="M-118.5234375 -21.375 L118.5234375 -21.375 L118.5234375 21.375 L-118.5234375 21.375" stroke="none" stroke-width="0" fill="hsl(0, 0%, 100%)"></path><path d="M-118.5234375 -21.375 C-28.33964573097971 -21.375, 61.84414603804058 -21.375, 118.5234375 -21.375 M-118.5234375 -21.375 C-27.551839195285027 -21.375, 63.41975910942995 -21.375, 118.5234375 -21.375 M118.5234375 -21.375 C118.5234375 -6.230620239380931, 118.5234375 8.913759521238138, 118.5234375 21.375 M118.5234375 -21.375 C118.5234375 -9.450367100565979, 118.5234375 2.4742657988680428, 118.5234375 21.375 M118.5234375 21.375 C63.853321582944695 21.375, 9.183205665889389 21.375, -118.5234375 21.375 M118.5234375 21.375 C49.12060343082899 21.375, -20.282230638342014 21.375, -118.5234375 21.375 M-118.5234375 21.375 C-118.5234375 4.692673640376931, -118.5234375 -11.989652719246138, -118.5234375 -21.375 M-118.5234375 21.375 C-118.5234375 10.470013295374052, -118.5234375 -0.43497340925189576, -118.5234375 -21.375" stroke="#466eaa" stroke-width="1.3" fill="none" stroke-dasharray="0 0"></path></g><g style="" class="row-rect-odd"><path d="M-118.5234375 21.375 L118.5234375 21.375 L118.5234375 64.125 L-118.5234375 64.125" stroke="none" stroke-width="0" fill="hsl(0, 0%, 100%)"></path><path d="M-118.5234375 21.375 C-28.232678659616326 21.375, 62.05808018076735 21.375, 118.5234375 21.375 M-118.5234375 21.375 C-63.95118611559346 21.375, -9.378934731186916 21.375, 118.5234375 21.375 M118.5234375 21.375 C118.5234375 32.128700591573484, 118.5234375 42.88240118314697, 118.5234375 64.125 M118.5234375 21.375 C118.5234375 37.75888612411755, 118.5234375 54.14277224823511, 118.5234375 64.125 M118.5234375 64.125 C56.361638136376456 64.125, -5.800161227247088 64.125, -118.5234375 64.125 M118.5234375 64.125 C48.012711995958654 64.125, -22.498013508082693 64.125, -118.5234375 64.125 M-118.5234375 64.125 C-118.5234375 48.39330642894253, -118.5234375 32.66161285788506, -118.5234375 21.375 M-118.5234375 64.125 C-118.5234375 50.203455517854984, -118.5234375 36.28191103570997, -118.5234375 21.375" stroke="#466eaa" stroke-width="1.3" fill="none" stroke-dasharray="0 0"></path></g><g style="" class="row-rect-even"><path d="M-118.5234375 64.125 L118.5234375 64.125 L118.5234375 106.875 L-118.5234375 106.875" stroke="none" stroke-width="0" fill="hsl(0, 0%, 100%)"></path><path d="M-118.5234375 64.125 C-50.21099934683973 64.125, 18.101438806320544 64.125, 118.5234375 64.125 M-118.5234375 64.125 C-41.58404937284837 64.125, 35.35533875430326 64.125, 118.5234375 64.125 M118.5234375 64.125 C118.5234375 74.71934227440552, 118.5234375 85.31368454881104, 118.5234375 106.875 M118.5234375 64.125 C118.5234375 80.8228935803885, 118.5234375 97.52078716077699, 118.5234375 106.875 M118.5234375 106.875 C55.705717109540714 106.875, -7.112003280918572 106.875, -118.5234375 106.875 M118.5234375 106.875 C55.01428826509724 106.875, -8.494860969805515 106.875, -118.5234375 106.875 M-118.5234375 106.875 C-118.5234375 95.31785650338627, -118.5234375 83.76071300677253, -118.5234375 64.125 M-118.5234375 106.875 C-118.5234375 93.51056790309639, -118.5234375 80.14613580619279, -118.5234375 64.125" stroke="#466eaa" stroke-width="1.3" fill="none" stroke-dasharray="0 0"></path></g><g class="label name" transform="translate(-20.3671875, -97.5)" style=""><foreignObject width="40.734375" height="24"><div xmlns="http://www.w3.org/1999/xhtml" style="display: table-cell; white-space: nowrap; line-height: 1.5; max-width: 141px; text-align: start;"><span class="nodeLabel "><p>USER</p></span></div></foreignObject></g><g class="label attribute-type" transform="translate(-106.0234375, -54.75)" style=""><foreignObject width="18.171875" height="24"><div xmlns="http://www.w3.org/1999/xhtml" style="display: table-cell; white-space: nowrap; line-height: 1.5; max-width: 117px; text-align: start;"><span class="nodeLabel "><p>int</p></span></div></foreignObject></g><g class="label attribute-name" transform="translate(-17.1953125, -54.75)" style=""><foreignObject width="13.15625" height="24"><div xmlns="http://www.w3.org/1999/xhtml" style="display: table-cell; white-space: nowrap; line-height: 1.5; max-width: 112px; text-align: start;"><span class="nodeLabel "><p>id</p></span></div></foreignObject></g><g class="label attribute-keys" transform="translate(85.9453125, -54.75)" style=""><foreignObject width="20.078125" height="24"><div xmlns="http://www.w3.org/1999/xhtml" style="display: table-cell; white-space: nowrap; line-height: 1.5; max-width: 120px; text-align: start;"><span class="nodeLabel "><p>PK</p></span></div></foreignObject></g><g class="label attribute-comment" transform="translate(131.0234375, -54.75)" style=""><foreignObject width="0" height="0"><div xmlns="http://www.w3.org/1999/xhtml" style="display: table-cell; white-space: nowrap; line-height: 1.5; max-width: 100px; text-align: start;"><span class="nodeLabel "></span></div></foreignObject></g><g class="label attribute-type" transform="translate(-106.0234375, -12)" style=""><foreignObject width="41.375" height="24"><div xmlns="http://www.w3.org/1999/xhtml" style="display: table-cell; white-space: nowrap; line-height: 1.5; max-width: 136px; text-align: start;"><span class="nodeLabel "><p>string</p></span></div></foreignObject></g><g class="label attribute-name" transform="translate(-17.1953125, -12)" style=""><foreignObject width="39.984375" height="24"><div xmlns="http://www.w3.org/1999/xhtml" style="display: table-cell; white-space: nowrap; line-height: 1.5; max-width: 135px; text-align: start;"><span class="nodeLabel "><p>name</p></span></div></foreignObject></g><g class="label attribute-keys" transform="translate(85.9453125, -12)" style=""><foreignObject width="0" height="0"><div xmlns="http://www.w3.org/1999/xhtml" style="display: table-cell; white-space: nowrap; line-height: 1.5; max-width: 100px; text-align: start;"><span class="nodeLabel "></span></div></foreignObject></g><g class="label attribute-comment" transform="translate(131.0234375, -12)" style=""><foreignObject width="0" height="0"><div xmlns="http://www.w3.org/1999/xhtml" style="display: table-cell; white-space: nowrap; line-height: 1.5; max-width: 100px; text-align: start;"><span class="nodeLabel "></span></div></foreignObject></g><g class="label attribute-type" transform="translate(-106.0234375, 30.75)" style=""><foreignObject width="41.375" height="24"><div xmlns="http://www.w3.org/1999/xhtml" style="display: table-cell; white-space: nowrap; line-height: 1.5; max-width: 136px; text-align: start;"><span class="nodeLabel "><p>string</p></span></div></foreignObject></g><g class="label attribute-name" transform="translate(-17.1953125, 30.75)" style=""><foreignObject width="38.328125" height="24"><div xmlns="http://www.w3.org/1999/xhtml" style="display: table-cell; white-space: nowrap; line-height: 1.5; max-width: 136px; text-align: start;"><span class="nodeLabel "><p>email</p></span></div></foreignObject></g><g class="label attribute-keys" transform="translate(85.9453125, 30.75)" style=""><foreignObject width="0" height="0"><div xmlns="http://www.w3.org/1999/xhtml" style="display: table-cell; white-space: nowrap; line-height: 1.5; max-width: 100px; text-align: start;"><span class="nodeLabel "></span></div></foreignObject></g><g class="label attribute-comment" transform="translate(131.0234375, 30.75)" style=""><foreignObject width="0" height="0"><div xmlns="http://www.w3.org/1999/xhtml" style="display: table-cell; white-space: nowrap; line-height: 1.5; max-width: 100px; text-align: start;"><span class="nodeLabel "></span></div></foreignObject></g><g class="label attribute-type" transform="translate(-106.0234375, 73.5)" style=""><foreignObject width="63.828125" height="24"><div xmlns="http://www.w3.org/1999/xhtml" style="display: table-cell; white-space: nowrap; line-height: 1.5; max-width: 155px; text-align: start;"><span class="nodeLabel "><p>datetime</p></span></div></foreignObject></g><g class="label attribute-name" transform="translate(-17.1953125, 73.5)" style=""><foreignObject width="78.140625" height="24"><div xmlns="http://www.w3.org/1999/xhtml" style="display: table-cell; white-space: nowrap; line-height: 1.5; max-width: 166px; text-align: start;"><span class="nodeLabel "><p>created_at</p></span></div></foreignObject></g><g class="label attribute-keys" transform="translate(85.9453125, 73.5)" style=""><foreignObject width="0" height="0"><div xmlns="http://www.w3.org/1999/xhtml" style="display: table-cell; white-space: nowrap; line-height: 1.5; max-width: 100px; text-align: start;"><span class="nodeLabel "></span></div></foreignObject></g><g class="label attribute-comment" transform="translate(131.0234375, 73.5)" style=""><foreignObject width="0" height="0"><div xmlns="http://www.w3.org/1999/xhtml" style="display: table-cell; white-space: nowrap; line-height: 1.5; max-width: 100px; text-align: start;"><span class="nodeLabel "></span></div></foreignObject></g><g class="divider"><path d="M-118.5234375 -64.12505 L-118.5234375 -64.12495 L118.5234375 -64.12495 L118.5234375 -64.12505" stroke="none" stroke-width="0" fill="#f9f9f9" fill-rule="evenodd"></path><path d="M-118.5234375 -64.12505 C-118.5234375 -64.12501012053671, -118.5234375 -64.12497024107341, -118.5234375 -64.12495 M-118.5234375 -64.12505 C-118.5234375 -64.12501048224296, -118.5234375 -64.12497096448591, -118.5234375 -64.12495 M-118.5234375 -64.12495 C-65.20754911003353 -64.12495, -11.891660720067051 -64.12495, 118.5234375 -64.12495 M-118.5234375 -64.12495 C-36.67520413899298 -64.12495, 45.17302922201404 -64.12495, 118.5234375 -64.12495 M118.5234375 -64.12495 C118.5234375 -64.12497636067758, 118.5234375 -64.12500272135517, 118.5234375 -64.12505 M118.5234375 -64.12495 C118.5234375 -64.12498898923418, 118.5234375 -64.12502797846838, 118.5234375 -64.12505 M118.5234375 -64.12505 C37.40189599943196 -64.12505, -43.719645501136085 -64.12505, -118.5234375 -64.12505 M118.5234375 -64.12505 C47.40478675796089 -64.12505, -23.713863984078216 -64.12505, -118.5234375 -64.12505" stroke="#466eaa" stroke-width="1.3" fill="none" stroke-dasharray="0 0"></path></g><g class="divider"><path d="M-29.6953625 -64.125 L-29.6952625 -64.125 L-29.6952625 106.875 L-29.6953625 106.875" stroke="none" stroke-width="0" fill="#f9f9f9" fill-rule="evenodd"></path><path d="M-29.6953625 -64.125 C-29.695323696465806 -64.125, -29.69528489293161 -64.125, -29.6952625 -64.125 M-29.6953625 -64.125 C-29.69533919898099 -64.125, -29.695315897961976 -64.125, -29.6952625 -64.125 M-29.6952625 -64.125 C-29.6952625 -20.22572712483263, -29.6952625 23.67354575033474, -29.6952625 106.875 M-29.6952625 -64.125 C-29.6952625 -1.8008156698597517, -29.6952625 60.5233686602805, -29.6952625 106.875 M-29.6952625 106.875 C-29.69529712514299 106.875, -29.695331750285977 106.875, -29.6953625 106.875 M-29.6952625 106.875 C-29.695282908004685 106.875, -29.695303316009372 106.875, -29.6953625 106.875 M-29.6953625 106.875 C-29.6953625 63.908931888877355, -29.6953625 20.94286377775471, -29.6953625 -64.125 M-29.6953625 106.875 C-29.6953625 47.44970730835922, -29.6953625 -11.975585383281555, -29.6953625 -64.125" stroke="#466eaa" stroke-width="1.3" fill="none" stroke-dasharray="0 0"></path></g><g class="divider"><path d="M73.4452625 -64.125 L73.4453625 -64.125 L73.4453625 106.875 L73.4452625 106.875" stroke="none" stroke-width="0" fill="#f9f9f9" fill-rule="evenodd"></path><path d="M73.4452625 -64.125 C73.44529379406954 -64.125, 73.4453250881391 -64.125, 73.4453625 -64.125 M73.4452625 -64.125 C73.44529247345929 -64.125, 73.4453224469186 -64.125, 73.4453625 -64.125 M73.4453625 -64.125 C73.4453625 -20.894342990244986, 73.4453625 22.336314019510027, 73.4453625 106.875 M73.4453625 -64.125 C73.4453625 -14.556227172785732, 73.4453625 35.012545654428536, 73.4453625 106.875 M73.4453625 106.875 C73.4453326692691 106.875, 73.4453028385382 106.875, 73.4452625 106.875 M73.4453625 106.875 C73.44533139842036 106.875, 73.44530029684074 106.875, 73.4452625 106.875 M73.4452625 106.875 C73.4452625 44.562217901421995, 73.4452625 -17.75056419715601, 73.4452625 -64.125 M73.4452625 106.875 C73.4452625 57.575179669153115, 73.4452625 8.275359338306231, 73.4452625 -64.125" stroke="#466eaa" stroke-width="1.3" fill="none" stroke-dasharray="0 0"></path></g><g class="divider"><path d="M-118.5234375 -64.12505 L-118.5234375 -64.12495 L118.5234375 -64.12495 L118.5234375 -64.12505" stroke="none" stroke-width="0" fill="#f9f9f9" fill-rule="evenodd"></path><path d="M-118.5234375 -64.12505 C-118.5234375 -64.12501054611755, -118.5234375 -64.1249710922351, -118.5234375 -64.12495 M-118.5234375 -64.12505 C-118.5234375 -64.12501953531792, -118.5234375 -64.12498907063582, -118.5234375 -64.12495 M-118.5234375 -64.12495 C-47.783947040575185 -64.12495, 22.95554341884963 -64.12495, 118.5234375 -64.12495 M-118.5234375 -64.12495 C-25.30222825758814 -64.12495, 67.91898098482372 -64.12495, 118.5234375 -64.12495 M118.5234375 -64.12495 C118.5234375 -64.12497733582995, 118.5234375 -64.1250046716599, 118.5234375 -64.12505 M118.5234375 -64.12495 C118.5234375 -64.12498804161805, 118.5234375 -64.1250260832361, 118.5234375 -64.12505 M118.5234375 -64.12505 C60.46849525345645 -64.12505, 2.413553006912906 -64.12505, -118.5234375 -64.12505 M118.5234375 -64.12505 C26.02685542379602 -64.12505, -66.46972665240796 -64.12505, -118.5234375 -64.12505" stroke="#466eaa" stroke-width="1.3" fill="none" stroke-dasharray="0 0"></path></g></g><g class="node default " id="mermaid-diagrams-er-mmd-entity-POST-1" data-look="classic" transform="translate(299.89453125, 464)"><g class="outer-path" style=""><path d="M-126.3359375 -128.25 L126.3359375 -128.25 L126.3359375 128.25 L-126.3359375 128.25" stroke="none" stroke-width="0" fill="#f9f9f9"></path><path d="M-126.3359375 -128.25 C-51.229267091776606 -128.25, 23.877403316446788 -128.25, 126.3359375 -128.25 M-126.3359375 -128.25 C-42.34285970875554 -128.25, 41.65021808248892 -128.25, 126.3359375 -128.25 M126.3359375 -128.25 C126.3359375 -39.59121421344888, 126.3359375 49.06757157310224, 126.3359375 128.25 M126.3359375 -128.25 C126.3359375 -55.442254419623524, 126.3359375 17.365491160752953, 126.3359375 128.25 M126.3359375 128.25 C29.93974993010832 128.25, -66.45643763978336 128.25, -126.3359375 128.25 M126.3359375 128.25 C56.70664629003892 128.25, -12.922644919922163 128.25, -126.3359375 128.25 M-126.3359375 128.25 C-126.3359375 69.90698780234256, -126.3359375 11.563975604685112, -126.3359375 -128.25 M-126.3359375 128.25 C-126.3359375 61.61128459405607, -126.3359375 -5.027430811887854, -126.3359375 -128.25" stroke="#466eaa" stroke-width="1.3" fill="none" stroke-dasharray="0 0"></path></g><g style="" class="row-rect-odd"><path d="M-126.3359375 -85.5 L126.3359375 -85.5 L126.3359375 -42.75 L-126.3359375 -42.75" stroke="none" stroke-width="0" fill="hsl(0, 0%, 100%)"></path><path d="M-126.3359375 -85.5 C-50.23648063935251 -85.5, 25.862976221294986 -85.5, 126.3359375 -85.5 M-126.3359375 -85.5 C-46.17352539789093 -85.5, 33.988886704218146 -85.5, 126.3359375 -85.5 M126.3359375 -85.5 C126.3359375 -69.22347543413235, 126.3359375 -52.9469508682647, 126.3359375 -42.75 M126.3359375 -85.5 C126.3359375 -76.17601199194483, 126.3359375 -66.85202398388967, 126.3359375 -42.75 M126.3359375 -42.75 C37.547872802197105 -42.75, -51.24019189560579 -42.75, -126.3359375 -42.75 M126.3359375 -42.75 C65.17066653805165 -42.75, 4.005395576103297 -42.75, -126.3359375 -42.75 M-126.3359375 -42.75 C-126.3359375 -51.83865696792863, -126.3359375 -60.927313935857256, -126.3359375 -85.5 M-126.3359375 -42.75 C-126.3359375 -56.899032599039174, -126.3359375 -71.04806519807835, -126.3359375 -85.5" stroke="#466eaa" stroke-width="1.3" fill="none" stroke-dasharray="0 0"></path></g><g style="" class="row-rect-even"><path d="M-126.3359375 -42.75 L126.3359375 -42.75 L126.3359375 0 L-126.3359375 0" stroke="none" stroke-width="0" fill="hsl(0, 0%, 100%)"></path><path d="M-126.3359375 -42.75 C-60.50909267528856 -42.75, 5.317752149422887 -42.75, 126.3359375 -42.75 M-126.3359375 -42.75 C-51.49226875479037 -42.75, 23.351399990419253 -42.75, 126.3359375 -42.75 M126.3359375 -42.75 C126.3359375 -29.12401839749817, 126.3359375 -15.498036794996338, 126.3359375 0 M126.3359375 -42.75 C126.3359375 -29.65254726275527, 126.3359375 -16.555094525510537, 126.3359375 0 M126.3359375 0 C72.71269574995543 0, 19.089453999910845 0, -126.3359375 0 M126.3359375 0 C32.136872005408335 0, -62.06219348918333 0, -126.3359375 0 M-126.3359375 0 C-126.3359375 -13.248523220916722, -126.3359375 -26.497046441833444, -126.3359375 -42.75 M-126.3359375 0 C-126.3359375 -15.07883953962596, -126.3359375 -30.15767907925192, -126.3359375 -42.75" stroke="#466eaa" stroke-width="1.3" fill="none" stroke-dasharray="0 0"></path></g><g style="" class="row-rect-odd"><path d="M-126.3359375 0 L126.3359375 0 L126.3359375 42.75 L-126.3359375 42.75" stroke="none" stroke-width="0" fill="hsl(0, 0%, 100%)"></path><path d="M-126.3359375 0 C-31.634863396512415 0, 63.06621070697517 0, 126.3359375 0 M-126.3359375 0 C-68.91437016095644 0, -11.492802821912875 0, 126.3359375 0 M126.3359375 0 C126.3359375 14.540255990432557, 126.3359375 29.080511980865115, 126.3359375 42.75 M126.3359375 0 C126.3359375 12.508804700143706, 126.3359375 25.017609400287412, 126.3359375 42.75 M126.3359375 42.75 C25.67552241372782 42.75, -74.98489267254436 42.75, -126.3359375 42.75 M126.3359375 42.75 C67.95162404411134 42.75, 9.567310588222682 42.75, -126.3359375 42.75 M-126.3359375 42.75 C-126.3359375 27.978404852918985, -126.3359375 13.206809705837966, -126.3359375 0 M-126.3359375 42.75 C-126.3359375 30.57589748930988, -126.3359375 18.40179497861976, -126.3359375 0" stroke="#466eaa" stroke-width="1.3" fill="none" stroke-dasharray="0 0"></path></g><g style="" class="row-rect-even"><path d="M-126.3359375 42.75 L126.3359375 42.75 L126.3359375 85.5 L-126.3359375 85.5" stroke="none" stroke-width="0" fill="hsl(0, 0%, 100%)"></path><path d="M-126.3359375 42.75 C-57.9428813384518 42.75, 10.450174823096404 42.75, 126.3359375 42.75 M-126.3359375 42.75 C-25.30659055569538 42.75, 75.72275638860924 42.75, 126.3359375 42.75 M126.3359375 42.75 C126.3359375 57.61099604179166, 126.3359375 72.47199208358332, 126.3359375 85.5 M126.3359375 42.75 C126.3359375 56.78144011546278, 126.3359375 70.81288023092556, 126.3359375 85.5 M126.3359375 85.5 C48.94692967785441 85.5, -28.442078144291173 85.5, -126.3359375 85.5 M126.3359375 85.5 C64.90375144221622 85.5, 3.471565384432438 85.5, -126.3359375 85.5 M-126.3359375 85.5 C-126.3359375 73.26042358268279, -126.3359375 61.020847165365595, -126.3359375 42.75 M-126.3359375 85.5 C-126.3359375 70.75989577601442, -126.3359375 56.01979155202883, -126.3359375 42.75" stroke="#466eaa" stroke-width="1.3" fill="none" stroke-dasharray="0 0"></path></g><g style="" class="row-rect-odd"><path d="M-126.3359375 85.5 L126.3359375 85.5 L126.3359375 128.25 L-126.3359375 128.25" stroke="none" stroke-width="0" fill="hsl(0, 0%, 100%)"></path><path d="M-126.3359375 85.5 C-55.14387216834251 85.5, 16.048193163314977 85.5, 126.3359375 85.5 M-126.3359375 85.5 C-40.774455399455235 85.5, 44.78702670108953 85.5, 126.3359375 85.5 M126.3359375 85.5 C126.3359375 101.21180777556883, 126.3359375 116.92361555113766, 126.3359375 128.25 M126.3359375 85.5 C126.3359375 99.04784909655216, 126.3359375 112.59569819310431, 126.3359375 128.25 M126.3359375 128.25 C41.36979765378382 128.25, -43.59634219243236 128.25, -126.3359375 128.25 M126.3359375 128.25 C73.2557746065126 128.25, 20.17561171302519 128.25, -126.3359375 128.25 M-126.3359375 128.25 C-126.3359375 113.37775353457783, -126.3359375 98.50550706915567, -126.3359375 85.5 M-126.3359375 128.25 C-126.3359375 111.70319412307359, -126.3359375 95.15638824614716, -126.3359375 85.5" stroke="#466eaa" stroke-width="1.3" fill="none" stroke-dasharray="0 0"></path></g><g class="label name" transform="translate(-20.796875, -118.875)" style=""><foreignObject width="41.59375" height="24"><div xmlns="http://www.w3.org/1999/xhtml" style="display: table-cell; white-space: nowrap; line-height: 1.5; max-width: 139px; text-align: start;"><span class="nodeLabel "><p>POST</p></span></div></foreignObject></g><g class="label attribute-type" transform="translate(-113.8359375, -76.125)" style=""><foreignObject width="18.171875" height="24"><div xmlns="http://www.w3.org/1999/xhtml" style="display: table-cell; white-space: nowrap; line-height: 1.5; max-width: 117px; text-align: start;"><span class="nodeLabel "><p>int</p></span></div></foreignObject></g><g class="label attribute-name" transform="translate(-25.0078125, -76.125)" style=""><foreignObject width="13.15625" height="24"><div xmlns="http://www.w3.org/1999/xhtml" style="display: table-cell; white-space: nowrap; line-height: 1.5; max-width: 112px; text-align: start;"><span class="nodeLabel "><p>id</p></span></div></foreignObject></g><g class="label attribute-keys" transform="translate(93.7578125, -76.125)" style=""><foreignObject width="20.078125" height="24"><div xmlns="http://www.w3.org/1999/xhtml" style="display: table-cell; white-space: nowrap; line-height: 1.5; max-width: 120px; text-align: start;"><span class="nodeLabel "><p>PK</p></span></div></foreignObject></g><g class="label attribute-comment" transform="translate(138.8359375, -76.125)" style=""><foreignObject width="0" height="0"><div xmlns="http://www.w3.org/1999/xhtml" style="display: table-cell; white-space: nowrap; line-height: 1.5; max-width: 100px; text-align: start;"><span class="nodeLabel "></span></div></foreignObject></g><g class="label attribute-type" transform="translate(-113.8359375, -33.375)" style=""><foreignObject width="18.171875" height="24"><div xmlns="http://www.w3.org/1999/xhtml" style="display: table-cell; white-space: nowrap; line-height: 1.5; max-width: 117px; text-align: start;"><span class="nodeLabel "><p>int</p></span></div></foreignObject></g><g class="label attribute-name" transform="translate(-25.0078125, -33.375)" style=""><foreignObject width="53.328125" height="24"><div xmlns="http://www.w3.org/1999/xhtml" style="display: table-cell; white-space: nowrap; line-height: 1.5; max-width: 147px; text-align: start;"><span class="nodeLabel "><p>user_id</p></span></div></foreignObject></g><g class="label attribute-keys" transform="translate(93.7578125, -33.375)" style=""><foreignObject width="19.078125" height="24"><div xmlns="http://www.w3.org/1999/xhtml" style="display: table-cell; white-space: nowrap; line-height: 1.5; max-width: 120px; text-align: start;"><span class="nodeLabel "><p>FK</p></span></div></foreignObject></g><g class="label attribute-comment" transform="translate(138.8359375, -33.375)" style=""><foreignObject width="0" height="0"><div xmlns="http://www.w3.org/1999/xhtml" style="display: table-cell; white-space: nowrap; line-height: 1.5; max-width: 100px; text-align: start;"><span class="nodeLabel "></span></div></foreignObject></g><g class="label attribute-type" transform="translate(-113.8359375, 9.375)" style=""><foreignObject width="41.375" height="24"><div xmlns="http://www.w3.org/1999/xhtml" style="display: table-cell; white-space: nowrap; line-height: 1.5; max-width: 136px; text-align: start;"><span class="nodeLabel "><p>string</p></span></div></foreignObject></g><g class="label attribute-name" transform="translate(-25.0078125, 9.375)" style=""><foreignObject width="27.203125" height="24"><div xmlns="http://www.w3.org/1999/xhtml" style="display: table-cell; white-space: nowrap; line-height: 1.5; max-width: 125px; text-align: start;"><span class="nodeLabel "><p>title</p></span></div></foreignObject></g><g class="label attribute-keys" transform="translate(93.7578125, 9.375)" style=""><foreignObject width="0" height="0"><div xmlns="http://www.w3.org/1999/xhtml" style="display: table-cell; white-space: nowrap; line-height: 1.5; max-width: 100px; text-align: start;"><span class="nodeLabel "></span></div></foreignObject></g><g class="label attribute-comment" transform="translate(138.8359375, 9.375)" style=""><foreignObject width="0" height="0"><div xmlns="http://www.w3.org/1999/xhtml" style="display: table-cell; white-space: nowrap; line-height: 1.5; max-width: 100px; text-align: start;"><span class="nodeLabel "></span></div></foreignObject></g><g class="label attribute-type" transform="translate(-113.8359375, 52.125)" style=""><foreignObject width="27.484375" height="24"><div xmlns="http://www.w3.org/1999/xhtml" style="display: table-cell; white-space: nowrap; line-height: 1.5; max-width: 124px; text-align: start;"><span class="nodeLabel "><p>text</p></span></div></foreignObject></g><g class="label attribute-name" transform="translate(-25.0078125, 52.125)" style=""><foreignObject width="55.546875" height="24"><div xmlns="http://www.w3.org/1999/xhtml" style="display: table-cell; white-space: nowrap; line-height: 1.5; max-width: 147px; text-align: start;"><span class="nodeLabel "><p>content</p></span></div></foreignObject></g><g class="label attribute-keys" transform="translate(93.7578125, 52.125)" style=""><foreignObject width="0" height="0"><div xmlns="http://www.w3.org/1999/xhtml" style="display: table-cell; white-space: nowrap; line-height: 1.5; max-width: 100px; text-align: start;"><span class="nodeLabel "></span></div></foreignObject></g><g class="label attribute-comment" transform="translate(138.8359375, 52.125)" style=""><foreignObject width="0" height="0"><div xmlns="http://www.w3.org/1999/xhtml" style="display: table-cell; white-space: nowrap; line-height: 1.5; max-width: 100px; text-align: start;"><span class="nodeLabel "></span></div></foreignObject></g><g class="label attribute-type" transform="translate(-113.8359375, 94.875)" style=""><foreignObject width="63.828125" height="24"><div xmlns="http://www.w3.org/1999/xhtml" style="display: table-cell; white-space: nowrap; line-height: 1.5; max-width: 155px; text-align: start;"><span class="nodeLabel "><p>datetime</p></span></div></foreignObject></g><g class="label attribute-name" transform="translate(-25.0078125, 94.875)" style=""><foreignObject width="93.765625" height="24"><div xmlns="http://www.w3.org/1999/xhtml" style="display: table-cell; white-space: nowrap; line-height: 1.5; max-width: 182px; text-align: start;"><span class="nodeLabel "><p>published_at</p></span></div></foreignObject></g><g class="label attribute-keys" transform="translate(93.7578125, 94.875)" style=""><foreignObject width="0" height="0"><div xmlns="http://www.w3.org/1999/xhtml" style="display: table-cell; white-space: nowrap; line-height: 1.5; max-width: 100px; text-align: start;"><span class="nodeLabel "></span></div></foreignObject></g><g class="label attribute-comment" transform="translate(138.8359375, 94.875)" style=""><foreignObject width="0" height="0"><div xmlns="http://www.w3.org/1999/xhtml" style="display: table-cell; white-space: nowrap; line-height: 1.5; max-width: 100px; text-align: start;"><span class="nodeLabel "></span></div></foreignObject></g><g class="divider"><path d="M-126.3359375 -85.50005 L-126.3359375 -85.49995 L126.3359375 -85.49995 L126.3359375 -85.50005" stroke="none" stroke-width="0" fill="#f9f9f9" fill-rule="evenodd"></path><path d="M-126.3359375 -85.50005 C-126.3359375 -85.50002609009833, -126.3359375 -85.50000218019666, -126.3359375 -85.49995 M-126.3359375 -85.50005 C-126.3359375 -85.5000237425126, -126.3359375 -85.49999748502519, -126.3359375 -85.49995 M-126.3359375 -85.49995 C-33.89002840391569 -85.49995, 58.555880692168614 -85.49995, 126.3359375 -85.49995 M-126.3359375 -85.49995 C-59.36534982862054 -85.49995, 7.605237842758925 -85.49995, 126.3359375 -85.49995 M126.3359375 -85.49995 C126.3359375 -85.49998735061897, 126.3359375 -85.50002470123792, 126.3359375 -85.50005 M126.3359375 -85.49995 C126.3359375 -85.49998447126139, 126.3359375 -85.50001894252277, 126.3359375 -85.50005 M126.3359375 -85.50005 C30.467105744193148 -85.50005, -65.4017260116137 -85.50005, -126.3359375 -85.50005 M126.3359375 -85.50005 C54.3155906686396 -85.50005, -17.7047561627208 -85.50005, -126.3359375 -85.50005" stroke="#466eaa" stroke-width="1.3" fill="none" stroke-dasharray="0 0"></path></g><g class="divider"><path d="M-37.5078625 -85.5 L-37.5077625 -85.5 L-37.5077625 128.25 L-37.5078625 128.25" stroke="none" stroke-width="0" fill="#f9f9f9" fill-rule="evenodd"></path><path d="M-37.5078625 -85.5 C-37.50783767293781 -85.5, -37.50781284587561 -85.5, -37.5077625 -85.5 M-37.5078625 -85.5 C-37.50783777525654 -85.5, -37.50781305051308 -85.5, -37.5077625 -85.5 M-37.5077625 -85.5 C-37.5077625 -17.027617719385404, -37.5077625 51.44476456122919, -37.5077625 128.25 M-37.5077625 -85.5 C-37.5077625 -11.218183622353607, -37.5077625 63.06363275529279, -37.5077625 128.25 M-37.5077625 128.25 C-37.50778998680544 128.25, -37.50781747361089 128.25, -37.5078625 128.25 M-37.5077625 128.25 C-37.50779034221313 128.25, -37.50781818442625 128.25, -37.5078625 128.25 M-37.5078625 128.25 C-37.5078625 77.81265239408432, -37.5078625 27.375304788168663, -37.5078625 -85.5 M-37.5078625 128.25 C-37.5078625 58.02771447354526, -37.5078625 -12.194571052909481, -37.5078625 -85.5" stroke="#466eaa" stroke-width="1.3" fill="none" stroke-dasharray="0 0"></path></g><g class="divider"><path d="M81.2577625 -85.5 L81.2578625 -85.5 L81.2578625 128.25 L81.2577625 128.25" stroke="none" stroke-width="0" fill="#f9f9f9" fill-rule="evenodd"></path><path d="M81.2577625 -85.5 C81.25778987743266 -85.5, 81.25781725486532 -85.5, 81.2578625 -85.5 M81.2577625 -85.5 C81.25778911354388 -85.5, 81.25781572708776 -85.5, 81.2578625 -85.5 M81.2578625 -85.5 C81.2578625 -22.808391009535406, 81.2578625 39.88321798092919, 81.2578625 128.25 M81.2578625 -85.5 C81.2578625 -20.063907269761827, 81.2578625 45.372185460476345, 81.2578625 128.25 M81.2578625 128.25 C81.25782845355101 128.25, 81.25779440710201 128.25, 81.2577625 128.25 M81.2578625 128.25 C81.25782258872998 128.25, 81.25778267745994 128.25, 81.2577625 128.25 M81.2577625 128.25 C81.2577625 78.83527486120428, 81.2577625 29.420549722408552, 81.2577625 -85.5 M81.2577625 128.25 C81.2577625 43.597555160327744, 81.2577625 -41.05488967934451, 81.2577625 -85.5" stroke="#466eaa" stroke-width="1.3" fill="none" stroke-dasharray="0 0"></path></g><g class="divider"><path d="M-126.3359375 -85.50005 L-126.3359375 -85.49995 L126.3359375 -85.49995 L126.3359375 -85.50005" stroke="none" stroke-width="0" fill="#f9f9f9" fill-rule="evenodd"></path><path d="M-126.3359375 -85.50005 C-126.3359375 -85.50001162311328, -126.3359375 -85.49997324622655, -126.3359375 -85.49995 M-126.3359375 -85.50005 C-126.3359375 -85.50002282136239, -126.3359375 -85.49999564272477, -126.3359375 -85.49995 M-126.3359375 -85.49995 C-61.149929031200344 -85.49995, 4.036079437599312 -85.49995, 126.3359375 -85.49995 M-126.3359375 -85.49995 C-54.9506705950231 -85.49995, 16.434596309953804 -85.49995, 126.3359375 -85.49995 M126.3359375 -85.49995 C126.3359375 -85.49998540142826, 126.3359375 -85.50002080285654, 126.3359375 -85.50005 M126.3359375 -85.49995 C126.3359375 -85.49998881034332, 126.3359375 -85.50002762068667, 126.3359375 -85.50005 M126.3359375 -85.50005 C27.850156032918363 -85.50005, -70.63562543416327 -85.50005, -126.3359375 -85.50005 M126.3359375 -85.50005 C61.123619961589554 -85.50005, -4.088697576820891 -85.50005, -126.3359375 -85.50005" stroke="#466eaa" stroke-width="1.3" fill="none" stroke-dasharray="0 0"></path></g></g><g class="node default " id="mermaid-diagrams-er-mmd-entity-COMMENT-2" data-look="classic" transform="translate(126.5234375, 822.5)"><g class="outer-path" style=""><path d="M-118.5234375 -128.25 L118.5234375 -128.25 L118.5234375 128.25 L-118.5234375 128.25" stroke="none" stroke-width="0" fill="#f9f9f9"></path><path d="M-118.5234375 -128.25 C-39.56982849229232 -128.25, 39.38378051541537 -128.25, 118.5234375 -128.25 M-118.5234375 -128.25 C-47.84887899925771 -128.25, 22.825679501484586 -128.25, 118.5234375 -128.25 M118.5234375 -128.25 C118.5234375 -61.94565116200941, 118.5234375 4.358697675981176, 118.5234375 128.25 M118.5234375 -128.25 C118.5234375 -37.46879122659345, 118.5234375 53.312417546813094, 118.5234375 128.25 M118.5234375 128.25 C60.441331901969086 128.25, 2.359226303938172 128.25, -118.5234375 128.25 M118.5234375 128.25 C46.23375508165685 128.25, -26.055927336686295 128.25, -118.5234375 128.25 M-118.5234375 128.25 C-118.5234375 33.13114636001647, -118.5234375 -61.987707279967054, -118.5234375 -128.25 M-118.5234375 128.25 C-118.5234375 67.75863844221905, -118.5234375 7.26727688443809, -118.5234375 -128.25" stroke="#466eaa" stroke-width="1.3" fill="none" stroke-dasharray="0 0"></path></g><g style="" class="row-rect-odd"><path d="M-118.5234375 -85.5 L118.5234375 -85.5 L118.5234375 -42.75 L-118.5234375 -42.75" stroke="none" stroke-width="0" fill="hsl(0, 0%, 100%)"></path><path d="M-118.5234375 -85.5 C-35.42946246921949 -85.5, 47.664512561561025 -85.5, 118.5234375 -85.5 M-118.5234375 -85.5 C-62.037237890029864 -85.5, -5.551038280059728 -85.5, 118.5234375 -85.5 M118.5234375 -85.5 C118.5234375 -71.22791108290342, 118.5234375 -56.95582216580683, 118.5234375 -42.75 M118.5234375 -85.5 C118.5234375 -75.74227941514972, 118.5234375 -65.98455883029946, 118.5234375 -42.75 M118.5234375 -42.75 C58.2121388806723 -42.75, -2.099159738655402 -42.75, -118.5234375 -42.75 M118.5234375 -42.75 C58.1888615534962 -42.75, -2.1457143930075944 -42.75, -118.5234375 -42.75 M-118.5234375 -42.75 C-118.5234375 -53.056565778372395, -118.5234375 -63.36313155674479, -118.5234375 -85.5 M-118.5234375 -42.75 C-118.5234375 -59.649507433411856, -118.5234375 -76.54901486682371, -118.5234375 -85.5" stroke="#466eaa" stroke-width="1.3" fill="none" stroke-dasharray="0 0"></path></g><g style="" class="row-rect-even"><path d="M-118.5234375 -42.75 L118.5234375 -42.75 L118.5234375 0 L-118.5234375 0" stroke="none" stroke-width="0" fill="hsl(0, 0%, 100%)"></path><path d="M-118.5234375 -42.75 C-58.28867390419419 -42.75, 1.9460896916116184 -42.75, 118.5234375 -42.75 M-118.5234375 -42.75 C-25.18111175528111 -42.75, 68.16121398943778 -42.75, 118.5234375 -42.75 M118.5234375 -42.75 C118.5234375 -25.703036287816744, 118.5234375 -8.656072575633488, 118.5234375 0 M118.5234375 -42.75 C118.5234375 -30.002586732792647, 118.5234375 -17.255173465585294, 118.5234375 0 M118.5234375 0 C38.5757176262733 0, -41.372002247453395 0, -118.5234375 0 M118.5234375 0 C26.144793720190904 0, -66.23385005961819 0, -118.5234375 0 M-118.5234375 0 C-118.5234375 -9.697039623498126, -118.5234375 -19.394079246996252, -118.5234375 -42.75 M-118.5234375 0 C-118.5234375 -12.00149553943634, -118.5234375 -24.00299107887268, -118.5234375 -42.75" stroke="#466eaa" stroke-width="1.3" fill="none" stroke-dasharray="0 0"></path></g><g style="" class="row-rect-odd"><path d="M-118.5234375 0 L118.5234375 0 L118.5234375 42.75 L-118.5234375 42.75" stroke="none" stroke-width="0" fill="hsl(0, 0%, 100%)"></path><path d="M-118.5234375 0 C-59.36823949559952 0, -0.2130414911990357 0, 118.5234375 0 M-118.5234375 0 C-51.86557403863233 0, 14.792289422735337 0, 118.5234375 0 M118.5234375 0 C118.5234375 11.341251616663959, 118.5234375 22.682503233327918, 118.5234375 42.75 M118.5234375 0 C118.5234375 12.434710394595696, 118.5234375 24.86942078919139, 118.5234375 42.75 M118.5234375 42.75 C41.51209631852237 42.75, -35.499244862955265 42.75, -118.5234375 42.75 M118.5234375 42.75 C42.842091673002244 42.75, -32.83925415399551 42.75, -118.5234375 42.75 M-118.5234375 42.75 C-118.5234375 32.777222755157574, -118.5234375 22.80444551031515, -118.5234375 0 M-118.5234375 42.75 C-118.5234375 31.008039730955005, -118.5234375 19.26607946191001, -118.5234375 0" stroke="#466eaa" stroke-width="1.3" fill="none" stroke-dasharray="0 0"></path></g><g style="" class="row-rect-even"><path d="M-118.5234375 42.75 L118.5234375 42.75 L118.5234375 85.5 L-118.5234375 85.5" stroke="none" stroke-width="0" fill="hsl(0, 0%, 100%)"></path><path d="M-118.5234375 42.75 C-49.94511434357672 42.75, 18.63320881284656 42.75, 118.5234375 42.75 M-118.5234375 42.75 C-26.203222215262187 42.75, 66.11699306947563 42.75, 118.5234375 42.75 M118.5234375 42.75 C118.5234375 57.17104665247146, 118.5234375 71.59209330494292, 118.5234375 85.5 M118.5234375 42.75 C118.5234375 59.14768861930414, 118.5234375 75.54537723860828, 118.5234375 85.5 M118.5234375 85.5 C43.18428909908819 85.5, -32.15485930182362 85.5, -118.5234375 85.5 M118.5234375 85.5 C43.17009260582206 85.5, -32.183252288355874 85.5, -118.5234375 85.5 M-118.5234375 85.5 C-118.5234375 72.64704554116888, -118.5234375 59.79409108233777, -118.5234375 42.75 M-118.5234375 85.5 C-118.5234375 68.61250156294923, -118.5234375 51.72500312589848, -118.5234375 42.75" stroke="#466eaa" stroke-width="1.3" fill="none" stroke-dasharray="0 0"></path></g><g style="" class="row-rect-odd"><path d="M-118.5234375 85.5 L118.5234375 85.5 L118.5234375 128.25 L-118.5234375 128.25" stroke="none" stroke-width="0" fill="hsl(0, 0%, 100%)"></path><path d="M-118.5234375 85.5 C-66.46126895659631 85.5, -14.399100413192642 85.5, 118.5234375 85.5 M-118.5234375 85.5 C-25.077786051353797 85.5, 68.3678653972924 85.5, 118.5234375 85.5 M118.5234375 85.5 C118.5234375 97.982694817825, 118.5234375 110.46538963565003, 118.5234375 128.25 M118.5234375 85.5 C118.5234375 101.94828394508414, 118.5234375 118.39656789016827, 118.5234375 128.25 M118.5234375 128.25 C53.575753369830906 128.25, -11.371930760338188 128.25, -118.5234375 128.25 M118.5234375 128.25 C50.63567091554785 128.25, -17.252095668904303 128.25, -118.5234375 128.25 M-118.5234375 128.25 C-118.5234375 116.83102906622871, -118.5234375 105.4120581324574, -118.5234375 85.5 M-118.5234375 128.25 C-118.5234375 118.59460865447824, -118.5234375 108.93921730895649, -118.5234375 85.5" stroke="#466eaa" stroke-width="1.3" fill="none" stroke-dasharray="0 0"></path></g><g class="label name" transform="translate(-40.5625, -118.875)" style=""><foreignObject width="81.125" height="24"><div xmlns="http://www.w3.org/1999/xhtml" style="display: table-cell; white-space: nowrap; line-height: 1.5; max-width: 182px; text-align: start;"><span class="nodeLabel "><p>COMMENT</p></span></div></foreignObject></g><g class="label attribute-type" transform="translate(-106.0234375, -76.125)" style=""><foreignObject width="18.171875" height="24"><div xmlns="http://www.w3.org/1999/xhtml" style="display: table-cell; white-space: nowrap; line-height: 1.5; max-width: 117px; text-align: start;"><span class="nodeLabel "><p>int</p></span></div></foreignObject></g><g class="label attribute-name" transform="translate(-17.1953125, -76.125)" style=""><foreignObject width="13.15625" height="24"><div xmlns="http://www.w3.org/1999/xhtml" style="display: table-cell; white-space: nowrap; line-height: 1.5; max-width: 112px; text-align: start;"><span class="nodeLabel "><p>id</p></span></div></foreignObject></g><g class="label attribute-keys" transform="translate(85.9453125, -76.125)" style=""><foreignObject width="20.078125" height="24"><div xmlns="http://www.w3.org/1999/xhtml" style="display: table-cell; white-space: nowrap; line-height: 1.5; max-width: 120px; text-align: start;"><span class="nodeLabel "><p>PK</p></span></div></foreignObject></g><g class="label attribute-comment" transform="translate(131.0234375, -76.125)" style=""><foreignObject width="0" height="0"><div xmlns="http://www.w3.org/1999/xhtml" style="display: table-cell; white-space: nowrap; line-height: 1.5; max-width: 100px; text-align: start;"><span class="nodeLabel "></span></div></foreignObject></g><g class="label attribute-type" transform="translate(-106.0234375, -33.375)" style=""><foreignObject width="18.171875" height="24"><div xmlns="http://www.w3.org/1999/xhtml" style="display: table-cell; white-space: nowrap; line-height: 1.5; max-width: 117px; text-align: start;"><span class="nodeLabel "><p>int</p></span></div></foreignObject></g><g class="label attribute-name" transform="translate(-17.1953125, -33.375)" style=""><foreignObject width="54.265625" height="24"><div xmlns="http://www.w3.org/1999/xhtml" style="display: table-cell; white-space: nowrap; line-height: 1.5; max-width: 147px; text-align: start;"><span class="nodeLabel "><p>post_id</p></span></div></foreignObject></g><g class="label attribute-keys" transform="translate(85.9453125, -33.375)" style=""><foreignObject width="19.078125" height="24"><div xmlns="http://www.w3.org/1999/xhtml" style="display: table-cell; white-space: nowrap; line-height: 1.5; max-width: 120px; text-align: start;"><span class="nodeLabel "><p>FK</p></span></div></foreignObject></g><g class="label attribute-comment" transform="translate(131.0234375, -33.375)" style=""><foreignObject width="0" height="0"><div xmlns="http://www.w3.org/1999/xhtml" style="display: table-cell; white-space: nowrap; line-height: 1.5; max-width: 100px; text-align: start;"><span class="nodeLabel "></span></div></foreignObject></g><g class="label attribute-type" transform="translate(-106.0234375, 9.375)" style=""><foreignObject width="18.171875" height="24"><div xmlns="http://www.w3.org/1999/xhtml" style="display: table-cell; white-space: nowrap; line-height: 1.5; max-width: 117px; text-align: start;"><span class="nodeLabel "><p>int</p></span></div></foreignObject></g><g class="label attribute-name" transform="translate(-17.1953125, 9.375)" style=""><foreignObject width="53.328125" height="24"><div xmlns="http://www.w3.org/1999/xhtml" style="display: table-cell; white-space: nowrap; line-height: 1.5; max-width: 147px; text-align: start;"><span class="nodeLabel "><p>user_id</p></span></div></foreignObject></g><g class="label attribute-keys" transform="translate(85.9453125, 9.375)" style=""><foreignObject width="19.078125" height="24"><div xmlns="http://www.w3.org/1999/xhtml" style="display: table-cell; white-space: nowrap; line-height: 1.5; max-width: 120px; text-align: start;"><span class="nodeLabel "><p>FK</p></span></div></foreignObject></g><g class="label attribute-comment" transform="translate(131.0234375, 9.375)" style=""><foreignObject width="0" height="0"><div xmlns="http://www.w3.org/1999/xhtml" style="display: table-cell; white-space: nowrap; line-height: 1.5; max-width: 100px; text-align: start;"><span class="nodeLabel "></span></div></foreignObject></g><g class="label attribute-type" transform="translate(-106.0234375, 52.125)" style=""><foreignObject width="27.484375" height="24"><div xmlns="http://www.w3.org/1999/xhtml" style="display: table-cell; white-space: nowrap; line-height: 1.5; max-width: 124px; text-align: start;"><span class="nodeLabel "><p>text</p></span></div></foreignObject></g><g class="label attribute-name" transform="translate(-17.1953125, 52.125)" style=""><foreignObject width="55.546875" height="24"><div xmlns="http://www.w3.org/1999/xhtml" style="display: table-cell; white-space: nowrap; line-height: 1.5; max-width: 147px; text-align: start;"><span class="nodeLabel "><p>content</p></span></div></foreignObject></g><g class="label attribute-keys" transform="translate(85.9453125, 52.125)" style=""><foreignObject width="0" height="0"><div xmlns="http://www.w3.org/1999/xhtml" style="display: table-cell; white-space: nowrap; line-height: 1.5; max-width: 100px; text-align: start;"><span class="nodeLabel "></span></div></foreignObject></g><g class="label attribute-comment" transform="translate(131.0234375, 52.125)" style=""><foreignObject width="0" height="0"><div xmlns="http://www.w3.org/1999/xhtml" style="display: table-cell; white-space: nowrap; line-height: 1.5; max-width: 100px; text-align: start;"><span class="nodeLabel "></span></div></foreignObject></g><g class="label attribute-type" transform="translate(-106.0234375, 94.875)" style=""><foreignObject width="63.828125" height="24"><div xmlns="http://www.w3.org/1999/xhtml" style="display: table-cell; white-space: nowrap; line-height: 1.5; max-width: 155px; text-align: start;"><span class="nodeLabel "><p>datetime</p></span></div></foreignObject></g><g class="label attribute-name" transform="translate(-17.1953125, 94.875)" style=""><foreignObject width="78.140625" height="24"><div xmlns="http://www.w3.org/1999/xhtml" style="display: table-cell; white-space: nowrap; line-height: 1.5; max-width: 166px; text-align: start;"><span class="nodeLabel "><p>created_at</p></span></div></foreignObject></g><g class="label attribute-keys" transform="translate(85.9453125, 94.875)" style=""><foreignObject width="0" height="0"><div xmlns="http://www.w3.org/1999/xhtml" style="display: table-cell; white-space: nowrap; line-height: 1.5; max-width: 100px; text-align: start;"><span class="nodeLabel "></span></div></foreignObject></g><g class="label attribute-comment" transform="translate(131.0234375, 94.875)" style=""><foreignObject width="0" height="0"><div xmlns="http://www.w3.org/1999/xhtml" style="display: table-cell; white-space: nowrap; line-height: 1.5; max-width: 100px; text-align: start;"><span class="nodeLabel "></span></div></foreignObject></g><g class="divider"><path d="M-118.5234375 -85.50005 L-118.5234375 -85.49995 L118.5234375 -85.49995 L118.5234375 -85.50005" stroke="none" stroke-width="0" fill="#f9f9f9" fill-rule="evenodd"></path><path d="M-118.5234375 -85.50005 C-118.5234375 -85.50001984126655, -118.5234375 -85.4999896825331, -118.5234375 -85.49995 M-118.5234375 -85.50005 C-118.5234375 -85.50001777916438, -118.5234375 -85.49998555832877, -118.5234375 -85.49995 M-118.5234375 -85.49995 C-55.86210126296051 -85.49995, 6.799234974078985 -85.49995, 118.5234375 -85.49995 M-118.5234375 -85.49995 C-59.98130553981112 -85.49995, -1.439173579622235 -85.49995, 118.5234375 -85.49995 M118.5234375 -85.49995 C118.5234375 -85.49997357842919, 118.5234375 -85.49999715685838, 118.5234375 -85.50005 M118.5234375 -85.49995 C118.5234375 -85.49997952392938, 118.5234375 -85.50000904785877, 118.5234375 -85.50005 M118.5234375 -85.50005 C33.758786105872275 -85.50005, -51.00586528825545 -85.50005, -118.5234375 -85.50005 M118.5234375 -85.50005 C50.768244816308865 -85.50005, -16.98694786738227 -85.50005, -118.5234375 -85.50005" stroke="#466eaa" stroke-width="1.3" fill="none" stroke-dasharray="0 0"></path></g><g class="divider"><path d="M-29.6953625 -85.5 L-29.6952625 -85.5 L-29.6952625 128.25 L-29.6953625 128.25" stroke="none" stroke-width="0" fill="#f9f9f9" fill-rule="evenodd"></path><path d="M-29.6953625 -85.5 C-29.69533750624095 -85.5, -29.6953125124819 -85.5, -29.6952625 -85.5 M-29.6953625 -85.5 C-29.695325787594548 -85.5, -29.695289075189095 -85.5, -29.6952625 -85.5 M-29.6952625 -85.5 C-29.6952625 -30.98073296330962, -29.6952625 23.53853407338076, -29.6952625 128.25 M-29.6952625 -85.5 C-29.6952625 -8.170395273189527, -29.6952625 69.15920945362095, -29.6952625 128.25 M-29.6952625 128.25 C-29.69528817900853 128.25, -29.695313858017062 128.25, -29.6953625 128.25 M-29.6952625 128.25 C-29.695302438222804 128.25, -29.695342376445613 128.25, -29.6953625 128.25 M-29.6953625 128.25 C-29.6953625 56.999441932732765, -29.6953625 -14.25111613453447, -29.6953625 -85.5 M-29.6953625 128.25 C-29.6953625 57.67042118068319, -29.6953625 -12.909157638633616, -29.6953625 -85.5" stroke="#466eaa" stroke-width="1.3" fill="none" stroke-dasharray="0 0"></path></g><g class="divider"><path d="M73.4452625 -85.5 L73.4453625 -85.5 L73.4453625 128.25 L73.4452625 128.25" stroke="none" stroke-width="0" fill="#f9f9f9" fill-rule="evenodd"></path><path d="M73.4452625 -85.5 C73.44529999287712 -85.5, 73.44533748575425 -85.5, 73.4453625 -85.5 M73.4452625 -85.5 C73.44529667560988 -85.5, 73.44533085121978 -85.5, 73.4453625 -85.5 M73.4453625 -85.5 C73.4453625 -24.071917041025067, 73.4453625 37.356165917949866, 73.4453625 128.25 M73.4453625 -85.5 C73.4453625 -3.2094626126391717, 73.4453625 79.08107477472166, 73.4453625 128.25 M73.4453625 128.25 C73.44533815253348 128.25, 73.44531380506697 128.25, 73.4452625 128.25 M73.4453625 128.25 C73.44533680515613 128.25, 73.44531111031228 128.25, 73.4452625 128.25 M73.4452625 128.25 C73.4452625 65.98422732029582, 73.4452625 3.7184546405916308, 73.4452625 -85.5 M73.4452625 128.25 C73.4452625 50.6732408176708, 73.4452625 -26.903518364658396, 73.4452625 -85.5" stroke="#466eaa" stroke-width="1.3" fill="none" stroke-dasharray="0 0"></path></g><g class="divider"><path d="M-118.5234375 -85.50005 L-118.5234375 -85.49995 L118.5234375 -85.49995 L118.5234375 -85.50005" stroke="none" stroke-width="0" fill="#f9f9f9" fill-rule="evenodd"></path><path d="M-118.5234375 -85.50005 C-118.5234375 -85.50001456198596, -118.5234375 -85.49997912397194, -118.5234375 -85.49995 M-118.5234375 -85.50005 C-118.5234375 -85.50002904868269, -118.5234375 -85.50000809736538, -118.5234375 -85.49995 M-118.5234375 -85.49995 C-41.62756367198253 -85.49995, 35.26831015603494 -85.49995, 118.5234375 -85.49995 M-118.5234375 -85.49995 C-31.211628557148472 -85.49995, 56.100180385703055 -85.49995, 118.5234375 -85.49995 M118.5234375 -85.49995 C118.5234375 -85.49998015981129, 118.5234375 -85.50001031962258, 118.5234375 -85.50005 M118.5234375 -85.49995 C118.5234375 -85.49998049794439, 118.5234375 -85.50001099588877, 118.5234375 -85.50005 M118.5234375 -85.50005 C69.58783120893841 -85.50005, 20.652224917876836 -85.50005, -118.5234375 -85.50005 M118.5234375 -85.50005 C70.77056351201504 -85.50005, 23.01768952403009 -85.50005, -118.5234375 -85.50005" stroke="#466eaa" stroke-width="1.3" fill="none" stroke-dasharray="0 0"></path></g></g><g class="node default " id="mermaid-diagrams-er-mmd-entity-CATEGORY-3" data-look="classic" transform="translate(473.265625, 822.5)"><g class="outer-path" style=""><path d="M-88.21875 -85.5 L88.21875 -85.5 L88.21875 85.5 L-88.21875 85.5" stroke="none" stroke-width="0" fill="#f9f9f9"></path><path d="M-88.21875 -85.5 C-30.91880610537816 -85.5, 26.38113778924368 -85.5, 88.21875 -85.5 M-88.21875 -85.5 C-28.641154916850617 -85.5, 30.936440166298766 -85.5, 88.21875 -85.5 M88.21875 -85.5 C88.21875 -28.790256334698554, 88.21875 27.91948733060289, 88.21875 85.5 M88.21875 -85.5 C88.21875 -47.27545311478344, 88.21875 -9.050906229566877, 88.21875 85.5 M88.21875 85.5 C42.20532882677039 85.5, -3.808092346459219 85.5, -88.21875 85.5 M88.21875 85.5 C19.945186988912752 85.5, -48.328376022174496 85.5, -88.21875 85.5 M-88.21875 85.5 C-88.21875 47.687465243862164, -88.21875 9.874930487724328, -88.21875 -85.5 M-88.21875 85.5 C-88.21875 18.848155329059225, -88.21875 -47.80368934188155, -88.21875 -85.5" stroke="#466eaa" stroke-width="1.3" fill="none" stroke-dasharray="0 0"></path></g><g style="" class="row-rect-odd"><path d="M-88.21875 -42.75 L88.21875 -42.75 L88.21875 0 L-88.21875 0" stroke="none" stroke-width="0" fill="hsl(0, 0%, 100%)"></path><path d="M-88.21875 -42.75 C-44.74027665099159 -42.75, -1.2618033019831785 -42.75, 88.21875 -42.75 M-88.21875 -42.75 C-25.469908735117038 -42.75, 37.278932529765925 -42.75, 88.21875 -42.75 M88.21875 -42.75 C88.21875 -30.319003594954093, 88.21875 -17.888007189908187, 88.21875 0 M88.21875 -42.75 C88.21875 -33.394543749330815, 88.21875 -24.03908749866163, 88.21875 0 M88.21875 0 C31.412048726980366 0, -25.394652546039268 0, -88.21875 0 M88.21875 0 C42.99005283489439 0, -2.2386443302112156 0, -88.21875 0 M-88.21875 0 C-88.21875 -10.941613895346629, -88.21875 -21.883227790693258, -88.21875 -42.75 M-88.21875 0 C-88.21875 -10.97421109642031, -88.21875 -21.94842219284062, -88.21875 -42.75" stroke="#466eaa" stroke-width="1.3" fill="none" stroke-dasharray="0 0"></path></g><g style="" class="row-rect-even"><path d="M-88.21875 0 L88.21875 0 L88.21875 42.75 L-88.21875 42.75" stroke="none" stroke-width="0" fill="hsl(0, 0%, 100%)"></path><path d="M-88.21875 0 C-27.22125325850636 0, 33.77624348298728 0, 88.21875 0 M-88.21875 0 C-20.078866908561125 0, 48.06101618287775 0, 88.21875 0 M88.21875 0 C88.21875 11.148990067636985, 88.21875 22.29798013527397, 88.21875 42.75 M88.21875 0 C88.21875 14.123994346172905, 88.21875 28.24798869234581, 88.21875 42.75 M88.21875 42.75 C21.059236864749167 42.75, -46.100276270501666 42.75, -88.21875 42.75 M88.21875 42.75 C46.3049539277603 42.75, 4.3911578555206034 42.75, -88.21875 42.75 M-88.21875 42.75 C-88.21875 28.972646004210766, -88.21875 15.195292008421536, -88.21875 0 M-88.21875 42.75 C-88.21875 27.180172927687302, -88.21875 11.610345855374607, -88.21875 0" stroke="#466eaa" stroke-width="1.3" fill="none" stroke-dasharray="0 0"></path></g><g style="" class="row-rect-odd"><path d="M-88.21875 42.75 L88.21875 42.75 L88.21875 85.5 L-88.21875 85.5" stroke="none" stroke-width="0" fill="hsl(0, 0%, 100%)"></path><path d="M-88.21875 42.75 C-26.784773378741036 42.75, 34.64920324251793 42.75, 88.21875 42.75 M-88.21875 42.75 C-22.60183711716239 42.75, 43.01507576567522 42.75, 88.21875 42.75 M88.21875 42.75 C88.21875 57.1786646637052, 88.21875 71.6073293274104, 88.21875 85.5 M88.21875 42.75 C88.21875 59.51423290031079, 88.21875 76.27846580062157, 88.21875 85.5 M88.21875 85.5 C40.86609344021944 85.5, -6.486563119561126 85.5, -88.21875 85.5 M88.21875 85.5 C25.81591695885509 85.5, -36.58691608228982 85.5, -88.21875 85.5 M-88.21875 85.5 C-88.21875 75.74847263213779, -88.21875 65.99694526427558, -88.21875 42.75 M-88.21875 85.5 C-88.21875 72.6809173580752, -88.21875 59.86183471615041, -88.21875 42.75" stroke="#466eaa" stroke-width="1.3" fill="none" stroke-dasharray="0 0"></path></g><g class="label name" transform="translate(-41.34375, -76.125)" style=""><foreignObject width="82.6875" height="24"><div xmlns="http://www.w3.org/1999/xhtml" style="display: table-cell; white-space: nowrap; line-height: 1.5; max-width: 184px; text-align: start;"><span class="nodeLabel "><p>CATEGORY</p></span></div></foreignObject></g><g class="label attribute-type" transform="translate(-75.71875, -33.375)" style=""><foreignObject width="18.171875" height="24"><div xmlns="http://www.w3.org/1999/xhtml" style="display: table-cell; white-space: nowrap; line-height: 1.5; max-width: 117px; text-align: start;"><span class="nodeLabel "><p>int</p></span></div></foreignObject></g><g class="label attribute-name" transform="translate(-9.34375, -33.375)" style=""><foreignObject width="13.15625" height="24"><div xmlns="http://www.w3.org/1999/xhtml" style="display: table-cell; white-space: nowrap; line-height: 1.5; max-width: 112px; text-align: start;"><span class="nodeLabel "><p>id</p></span></div></foreignObject></g><g class="label attribute-keys" transform="translate(55.640625, -33.375)" style=""><foreignObject width="20.078125" height="24"><div xmlns="http://www.w3.org/1999/xhtml" style="display: table-cell; white-space: nowrap; line-height: 1.5; max-width: 120px; text-align: start;"><span class="nodeLabel "><p>PK</p></span></div></foreignObject></g><g class="label attribute-comment" transform="translate(100.71875, -33.375)" style=""><foreignObject width="0" height="0"><div xmlns="http://www.w3.org/1999/xhtml" style="display: table-cell; white-space: nowrap; line-height: 1.5; max-width: 100px; text-align: start;"><span class="nodeLabel "></span></div></foreignObject></g><g class="label attribute-type" transform="translate(-75.71875, 9.375)" style=""><foreignObject width="41.375" height="24"><div xmlns="http://www.w3.org/1999/xhtml" style="display: table-cell; white-space: nowrap; line-height: 1.5; max-width: 136px; text-align: start;"><span class="nodeLabel "><p>string</p></span></div></foreignObject></g><g class="label attribute-name" transform="translate(-9.34375, 9.375)" style=""><foreignObject width="39.984375" height="24"><div xmlns="http://www.w3.org/1999/xhtml" style="display: table-cell; white-space: nowrap; line-height: 1.5; max-width: 135px; text-align: start;"><span class="nodeLabel "><p>name</p></span></div></foreignObject></g><g class="label attribute-keys" transform="translate(55.640625, 9.375)" style=""><foreignObject width="0" height="0"><div xmlns="http://www.w3.org/1999/xhtml" style="display: table-cell; white-space: nowrap; line-height: 1.5; max-width: 100px; text-align: start;"><span class="nodeLabel "></span></div></foreignObject></g><g class="label attribute-comment" transform="translate(100.71875, 9.375)" style=""><foreignObject width="0" height="0"><div xmlns="http://www.w3.org/1999/xhtml" style="display: table-cell; white-space: nowrap; line-height: 1.5; max-width: 100px; text-align: start;"><span class="nodeLabel "></span></div></foreignObject></g><g class="label attribute-type" transform="translate(-75.71875, 52.125)" style=""><foreignObject width="41.375" height="24"><div xmlns="http://www.w3.org/1999/xhtml" style="display: table-cell; white-space: nowrap; line-height: 1.5; max-width: 136px; text-align: start;"><span class="nodeLabel "><p>string</p></span></div></foreignObject></g><g class="label attribute-name" transform="translate(-9.34375, 52.125)" style=""><foreignObject width="30.265625" height="24"><div xmlns="http://www.w3.org/1999/xhtml" style="display: table-cell; white-space: nowrap; line-height: 1.5; max-width: 127px; text-align: start;"><span class="nodeLabel "><p>slug</p></span></div></foreignObject></g><g class="label attribute-keys" transform="translate(55.640625, 52.125)" style=""><foreignObject width="0" height="0"><div xmlns="http://www.w3.org/1999/xhtml" style="display: table-cell; white-space: nowrap; line-height: 1.5; max-width: 100px; text-align: start;"><span class="nodeLabel "></span></div></foreignObject></g><g class="label attribute-comment" transform="translate(100.71875, 52.125)" style=""><foreignObject width="0" height="0"><div xmlns="http://www.w3.org/1999/xhtml" style="display: table-cell; white-space: nowrap; line-height: 1.5; max-width: 100px; text-align: start;"><span class="nodeLabel "></span></div></foreignObject></g><g class="divider"><path d="M-88.21875 -42.75005 L-88.21875 -42.74995 L88.21875 -42.74995 L88.21875 -42.75005" stroke="none" stroke-width="0" fill="#f9f9f9" fill-rule="evenodd"></path><path d="M-88.21875 -42.75005 C-88.21875 -42.7500275401809, -88.21875 -42.7500050803618, -88.21875 -42.74995 M-88.21875 -42.75005 C-88.21875 -42.750017384444234, -88.21875 -42.749984768888474, -88.21875 -42.74995 M-88.21875 -42.74995 C-34.379710106290254 -42.74995, 19.45932978741949 -42.74995, 88.21875 -42.74995 M-88.21875 -42.74995 C-51.68530761216207 -42.74995, -15.15186522432414 -42.74995, 88.21875 -42.74995 M88.21875 -42.74995 C88.21875 -42.74998307708755, 88.21875 -42.75001615417511, 88.21875 -42.75005 M88.21875 -42.74995 C88.21875 -42.74997581300237, 88.21875 -42.75000162600475, 88.21875 -42.75005 M88.21875 -42.75005 C31.131492933745335 -42.75005, -25.95576413250933 -42.75005, -88.21875 -42.75005 M88.21875 -42.75005 C22.5779227225663 -42.75005, -43.0629045548674 -42.75005, -88.21875 -42.75005" stroke="#466eaa" stroke-width="1.3" fill="none" stroke-dasharray="0 0"></path></g><g class="divider"><path d="M-21.8438 -42.75 L-21.8437 -42.75 L-21.8437 85.5 L-21.8438 85.5" stroke="none" stroke-width="0" fill="#f9f9f9" fill-rule="evenodd"></path><path d="M-21.8438 -42.75 C-21.84376965913939 -42.75, -21.84373931827878 -42.75, -21.8437 -42.75 M-21.8438 -42.75 C-21.843774004742475 -42.75, -21.843748009484948 -42.75, -21.8437 -42.75 M-21.8437 -42.75 C-21.8437 -3.097755364224014, -21.8437 36.55448927155197, -21.8437 85.5 M-21.8437 -42.75 C-21.8437 1.7764562493856388, -21.8437 46.30291249877128, -21.8437 85.5 M-21.8437 85.5 C-21.843737146018377 85.5, -21.843774292036752 85.5, -21.8438 85.5 M-21.8437 85.5 C-21.843738633792032 85.5, -21.84377726758407 85.5, -21.8438 85.5 M-21.8438 85.5 C-21.8438 39.53784494523873, -21.8438 -6.424310109522537, -21.8438 -42.75 M-21.8438 85.5 C-21.8438 39.838081920008406, -21.8438 -5.823836159983188, -21.8438 -42.75" stroke="#466eaa" stroke-width="1.3" fill="none" stroke-dasharray="0 0"></path></g><g class="divider"><path d="M43.140575 -42.75 L43.140675 -42.75 L43.140675 85.5 L43.140575 85.5" stroke="none" stroke-width="0" fill="#f9f9f9" fill-rule="evenodd"></path><path d="M43.140575 -42.75 C43.14061022402673 -42.75, 43.14064544805347 -42.75, 43.140675 -42.75 M43.140575 -42.75 C43.14059742836446 -42.75, 43.14061985672892 -42.75, 43.140675 -42.75 M43.140675 -42.75 C43.140675 -16.644561337707554, 43.140675 9.460877324584892, 43.140675 85.5 M43.140675 -42.75 C43.140675 -6.632145689880403, 43.140675 29.485708620239194, 43.140675 85.5 M43.140675 85.5 C43.14065263268223 85.5, 43.14063026536446 85.5, 43.140575 85.5 M43.140675 85.5 C43.14063949416953 85.5, 43.14060398833905 85.5, 43.140575 85.5 M43.140575 85.5 C43.140575 49.951391439941595, 43.140575 14.40278287988319, 43.140575 -42.75 M43.140575 85.5 C43.140575 55.00824918777094, 43.140575 24.51649837554188, 43.140575 -42.75" stroke="#466eaa" stroke-width="1.3" fill="none" stroke-dasharray="0 0"></path></g><g class="divider"><path d="M-88.21875 -42.75005 L-88.21875 -42.74995 L88.21875 -42.74995 L88.21875 -42.75005" stroke="none" stroke-width="0" fill="#f9f9f9" fill-rule="evenodd"></path><path d="M-88.21875 -42.75005 C-88.21875 -42.75002146891677, -88.21875 -42.74999293783353, -88.21875 -42.74995 M-88.21875 -42.75005 C-88.21875 -42.75001733544718, -88.21875 -42.749984670894364, -88.21875 -42.74995 M-88.21875 -42.74995 C-40.080860000309265 -42.74995, 8.05702999938147 -42.74995, 88.21875 -42.74995 M-88.21875 -42.74995 C-48.19782462415437 -42.74995, -8.176899248308743 -42.74995, 88.21875 -42.74995 M88.21875 -42.74995 C88.21875 -42.74998000344641, 88.21875 -42.75001000689282, 88.21875 -42.75005 M88.21875 -42.74995 C88.21875 -42.749971704843325, 88.21875 -42.74999340968666, 88.21875 -42.75005 M88.21875 -42.75005 C38.38168637867257 -42.75005, -11.455377242654862 -42.75005, -88.21875 -42.75005 M88.21875 -42.75005 C46.86619685695942 -42.75005, 5.513643713918839 -42.75005, -88.21875 -42.75005" stroke="#466eaa" stroke-width="1.3" fill="none" stroke-dasharray="0 0"></path></g></g></g></g></g><defs><filter id="mermaid-diagrams-er-mmd-drop-shadow" height="130%" width="130%"><feDropShadow dx="4" dy="4" stdDeviation="0" flood-opacity="0.06" flood-color="#000000"></feDropShadow></filter></defs><defs><filter id="mermaid-diagrams-er-mmd-drop-shadow-small" height="150%" width="150%"><feDropShadow dx="2" dy="2" stdDeviation="0" flood-opacity="0.06" flood-color="#000000"></feDropShadow></filter></defs><linearGradient id="mermaid-diagrams-er-mmd-gradient" gradientUnits="objectBoundingBox" x1="0%" y1="0%" x2="100%" y2="0%"><stop offset="0%" stop-color="#466eaa" stop-opacity="1"></stop><stop offset="100%" stop-color="hsl(0, 0%, 87.6470588235%)" stop-opacity="1"></stop></linearGradient></svg>
